<?xml version="1.0" standalone="no"?>
<!DOCTYPE svg PUBLIC "-//W3C//DTD SVG 20010904//EN"
 "http://www.w3.org/TR/2001/REC-SVG-20010904/DTD/svg10.dtd">
<svg version="1.0" xmlns="http://www.w3.org/2000/svg"
 width="1000.000000pt" height="1000.000000pt" viewBox="0 0 1000.000000 1000.000000"
 preserveAspectRatio="xMidYMid meet">
<metadata>
Created by potrace 1.11, written by Peter Selinger 2001-2013
</metadata>
<g transform="translate(0.000000,1000.000000) scale(0.100000,-0.100000)"
fill="#000000" stroke="none">
<path d="M3652 9094 c10 -10 20 -16 22 -13 3 3 -5 11 -17 18 -21 13 -21 12 -5
-5z"/>
<path d="M3747 9103 c-10 -9 -9 -23 1 -23 5 0 9 7 9 15 0 17 -1 18 -10 8z"/>
<path d="M3800 9059 c0 -5 5 -7 10 -4 6 3 10 8 10 11 0 2 -4 4 -10 4 -5 0 -10
-5 -10 -11z"/>
<path d="M3015 9040 c-3 -5 -1 -10 4 -10 6 0 11 5 11 10 0 6 -2 10 -4 10 -3 0
-8 -4 -11 -10z"/>
<path d="M3600 9040 c0 -5 4 -10 9 -10 6 0 13 5 16 10 3 6 -1 10 -9 10 -9 0
-16 -4 -16 -10z"/>
<path d="M3880 9027 c0 -9 -5 -16 -11 -14 -6 1 -14 -4 -16 -10 -3 -8 4 -13 16
-13 25 0 39 26 22 43 -8 8 -11 7 -11 -6z"/>
<path d="M3700 9005 c0 -18 24 -30 39 -21 16 10 1 36 -20 36 -10 0 -19 -7 -19
-15z"/>
<path d="M3065 9000 c3 -5 8 -10 11 -10 2 0 4 5 4 10 0 6 -5 10 -11 10 -5 0
-7 -4 -4 -10z"/>
<path d="M3510 8989 c0 -5 -4 -7 -10 -4 -5 3 -10 2 -10 -4 0 -5 5 -13 10 -16
6 -4 8 -11 4 -16 -9 -15 14 -36 38 -35 25 1 36 32 19 49 -9 9 -14 8 -21 -3 -9
-13 -11 -13 -19 0 -6 9 -6 19 1 27 7 9 7 13 -1 13 -6 0 -11 -5 -11 -11z"/>
<path d="M2980 8970 c-12 -7 -12 -12 -2 -22 14 -14 35 1 24 19 -5 8 -13 9 -22
3z"/>
<path d="M3175 8960 c-3 -5 -1 -10 4 -10 6 0 11 5 11 10 0 6 -2 10 -4 10 -3 0
-8 -4 -11 -10z"/>
<path d="M2863 8943 c9 -9 20 -13 24 -9 4 4 1 11 -7 16 -25 16 -35 11 -17 -7z"/>
<path d="M3124 8936 c-14 -36 34 -47 55 -13 10 16 9 18 -6 15 -10 -1 -24 1
-31 5 -7 5 -14 2 -18 -7z"/>
<path d="M4051 8916 c-8 -13 -10 -29 -7 -35 10 -16 33 -14 40 4 3 8 1 15 -5
15 -6 0 -8 9 -4 20 9 28 -9 25 -24 -4z"/>
<path d="M4125 8910 c3 -5 8 -10 11 -10 2 0 4 5 4 10 0 6 -5 10 -11 10 -5 0
-7 -4 -4 -10z"/>
<path d="M4167 8874 c-8 -8 1 -24 14 -24 5 0 9 7 9 15 0 15 -12 20 -23 9z"/>
<path d="M4230 8869 c0 -5 5 -7 10 -4 6 3 10 8 10 11 0 2 -4 4 -10 4 -5 0 -10
-5 -10 -11z"/>
<path d="M2747 8856 c-3 -8 -2 -18 3 -21 13 -8 24 15 12 27 -6 6 -11 4 -15 -6z"/>
<path d="M4260 8830 c-8 -5 -11 -12 -7 -16 4 -4 13 -2 19 4 15 15 7 24 -12 12z"/>
<path d="M2680 8820 c0 -5 5 -10 10 -10 6 0 10 5 10 10 0 6 -4 10 -10 10 -5 0
-10 -4 -10 -10z"/>
<path d="M3803 8811 c-25 -21 -31 -61 -9 -61 7 0 16 -9 19 -21 4 -15 12 -20
29 -17 13 2 23 10 23 18 0 8 6 20 14 26 17 13 8 44 -14 44 -8 0 -15 7 -15 15
0 20 -20 18 -47 -4z"/>
<path d="M2896 8801 c-15 -16 -15 -22 -4 -40 15 -24 48 -28 48 -5 0 8 5 12 10
9 15 -10 12 25 -4 41 -19 19 -30 18 -50 -5z"/>
<path d="M2692 8723 c2 -10 10 -18 18 -18 8 0 16 8 18 18 2 12 -3 17 -18 17
-15 0 -20 -5 -18 -17z"/>
<path d="M4137 8733 c-9 -16 -4 -62 7 -66 7 -3 23 3 35 12 20 15 22 21 12 39
-11 21 -45 30 -54 15z"/>
<path d="M4326 8713 c-12 -12 -6 -33 10 -33 11 0 14 5 10 16 -6 15 -4 15 19 0
14 -9 25 -12 25 -6 0 5 -5 10 -11 10 -5 0 -8 4 -5 8 6 9 -38 14 -48 5z"/>
<path d="M2580 8700 c-9 -6 -10 -10 -3 -10 6 0 15 5 18 10 8 12 4 12 -15 0z"/>
<path d="M3085 8650 c-3 -5 -1 -10 4 -10 6 0 11 5 11 10 0 6 -2 10 -4 10 -3 0
-8 -4 -11 -10z"/>
<path d="M4386 8651 c-4 -5 -2 -12 3 -15 5 -4 12 -2 15 3 4 5 2 12 -3 15 -5 4
-12 2 -15 -3z"/>
<path d="M3266 8638 c-22 -12 -21 -48 2 -49 10 0 12 -3 4 -6 -6 -2 -10 -9 -6
-14 3 -5 0 -8 -6 -7 -17 4 -39 -33 -22 -39 6 -3 12 -11 12 -18 0 -21 41 -30
52 -11 12 22 35 20 41 -4 7 -25 32 -26 59 -1 23 22 18 51 -9 51 -15 0 -16 2
-3 10 13 9 13 10 0 10 -12 1 -11 3 3 11 24 14 21 34 -10 54 -24 16 -27 16 -38
1 -16 -21 -35 -20 -35 2 0 20 -19 24 -44 10z"/>
<path d="M2612 8628 c6 -18 28 -21 28 -4 0 9 -7 16 -16 16 -9 0 -14 -5 -12
-12z"/>
<path d="M4438 8608 c-22 -22 -22 -28 -4 -28 7 0 16 10 19 22 8 28 6 29 -15 6z"/>
<path d="M3595 8611 c-3 -5 -1 -12 5 -16 5 -3 10 1 10 9 0 18 -6 21 -15 7z"/>
<path d="M6955 8600 c3 -5 8 -10 11 -10 2 0 4 5 4 10 0 6 -5 10 -11 10 -5 0
-7 -4 -4 -10z"/>
<path d="M7035 8590 c3 -5 8 -10 11 -10 2 0 4 5 4 10 0 6 -5 10 -11 10 -5 0
-7 -4 -4 -10z"/>
<path d="M6944 8565 c0 -17 6 -25 18 -25 10 0 18 2 18 5 0 3 -8 15 -18 25 -18
19 -18 19 -18 -5z"/>
<path d="M7177 8583 c-4 -3 -7 -11 -7 -17 0 -6 5 -5 12 2 6 6 9 14 7 17 -3 3
-9 2 -12 -2z"/>
<path d="M4309 8559 c-9 -17 -8 -25 4 -36 13 -14 17 -12 33 12 15 23 15 28 3
36 -21 13 -27 11 -40 -12z"/>
<path d="M7220 8568 c-12 -8 -12 -9 2 -5 9 3 19 1 22 -6 3 -9 5 -9 5 0 1 18
-13 23 -29 11z"/>
<path d="M2555 8551 c-3 -5 -2 -12 3 -15 5 -3 9 1 9 9 0 17 -3 19 -12 6z"/>
<path d="M2600 8540 c0 -5 5 -10 10 -10 6 0 10 5 10 10 0 6 -4 10 -10 10 -5 0
-10 -4 -10 -10z"/>
<path d="M6749 8548 c-3 -14 -6 -23 -14 -41 -4 -10 -5 -20 -2 -24 11 -11 37 6
37 24 0 19 -19 54 -21 41z"/>
<path d="M2702 8528 c-15 -15 -16 -38 -2 -38 6 0 10 -7 10 -15 0 -9 -9 -15
-24 -15 -13 0 -29 7 -36 15 -14 17 -30 20 -30 6 0 -5 9 -11 21 -14 12 -3 18
-10 14 -16 -3 -6 -11 -9 -16 -6 -5 4 -9 2 -9 -4 0 -19 20 -22 36 -7 20 21 26
20 22 -1 -2 -12 3 -18 15 -18 9 0 17 5 16 10 0 6 10 12 22 15 32 8 37 64 7 85
-27 18 -31 18 -46 3z"/>
<path d="M6527 8533 c-13 -13 -7 -53 8 -53 8 0 15 5 15 10 0 6 -4 10 -10 10
-5 0 -10 7 -10 16 0 9 5 12 12 8 7 -4 8 -3 4 4 -8 14 -10 14 -19 5z"/>
<path d="M7086 8515 c-7 -20 23 -33 34 -14 5 7 6 17 4 21 -9 13 -32 9 -38 -7z"/>
<path d="M7210 8515 c0 -8 5 -15 10 -15 6 0 10 7 10 15 0 8 -4 15 -10 15 -5 0
-10 -7 -10 -15z"/>
<path d="M6620 8505 c0 -9 5 -15 11 -13 6 2 11 8 11 13 0 5 -5 11 -11 13 -6 2
-11 -4 -11 -13z"/>
<path d="M2580 8491 c0 -6 5 -13 10 -16 6 -3 10 1 10 9 0 9 -4 16 -10 16 -5 0
-10 -4 -10 -9z"/>
<path d="M4437 8493 c-12 -12 -7 -25 7 -20 9 4 17 -1 19 -11 4 -15 5 -15 6 -1
1 19 -22 42 -32 32z"/>
<path d="M7301 8459 c-7 -12 -10 -23 -8 -26 3 -3 11 5 17 17 15 28 8 35 -9 9z"/>
<path d="M4450 8420 c0 -5 5 -10 10 -10 6 0 10 5 10 10 0 6 -4 10 -10 10 -5 0
-10 -4 -10 -10z"/>
<path d="M7241 8417 c-17 -21 -3 -47 26 -47 13 0 21 4 18 10 -4 6 1 7 11 3 13
-5 16 -3 11 10 -3 8 -1 18 6 20 7 2 9 7 6 11 -4 4 -13 1 -20 -7 -12 -13 -16
-13 -30 -1 -14 12 -18 12 -28 1z"/>
<path d="M4480 8401 c0 -11 -6 -21 -12 -24 -7 -2 -10 -8 -5 -12 9 -11 23 3 32
33 4 13 2 22 -4 22 -6 0 -11 -9 -11 -19z"/>
<path d="M6385 8409 c-4 -6 -4 -13 -1 -16 3 -4 6 -1 6 6 0 7 5 9 10 6 6 -3 10
-1 10 4 0 14 -17 14 -25 0z"/>
<path d="M6420 8394 c0 -14 4 -23 10 -19 6 3 10 15 10 26 0 10 -4 19 -10 19
-5 0 -10 -12 -10 -26z"/>
<path d="M4356 8394 c-4 -10 -2 -22 3 -27 14 -14 43 0 39 20 -4 24 -34 28 -42
7z"/>
<path d="M6575 8374 c-21 -21 -19 -37 7 -53 19 -12 23 -11 39 10 22 29 20 39
-9 50 -15 6 -26 3 -37 -7z"/>
<path d="M6308 8373 c7 -3 16 -2 19 1 4 3 -2 6 -13 5 -11 0 -14 -3 -6 -6z"/>
<path d="M4110 8363 c-42 -16 -76 -82 -50 -98 6 -3 10 -11 10 -16 0 -6 -4 -7
-10 -4 -13 8 -13 -21 0 -46 13 -23 40 -25 40 -3 0 8 5 12 11 9 5 -4 8 -12 6
-18 -2 -7 3 -17 12 -24 14 -11 14 -12 -1 -13 -10 0 -18 -4 -18 -9 0 -30 82
-38 88 -8 2 10 -3 17 -12 17 -20 0 -21 14 -2 29 12 10 19 8 34 -7 11 -11 23
-18 26 -15 3 3 13 0 22 -8 14 -12 14 -14 -6 -21 -25 -9 -18 -28 11 -28 28 0
73 44 66 64 -6 15 -9 15 -30 1 -22 -14 -24 -14 -35 10 -10 21 -8 27 14 44 14
11 31 18 39 15 8 -3 21 -2 30 4 15 8 15 10 1 25 -9 8 -16 22 -17 29 0 7 -5 1
-10 -14 -19 -50 -139 -99 -153 -62 -4 9 -13 14 -21 10 -8 -3 -15 -1 -15 4 0 6
5 10 11 10 5 0 7 5 4 10 -3 6 4 10 16 10 12 0 20 3 16 6 -3 4 0 13 8 20 36 36
-32 97 -85 77z"/>
<path d="M6350 8360 c0 -5 5 -10 10 -10 6 0 10 5 10 10 0 6 -4 10 -10 10 -5 0
-10 -4 -10 -10z"/>
<path d="M6903 8360 c-23 -10 -31 -34 -13 -45 5 -3 7 -12 4 -20 -3 -7 4 -18
16 -25 17 -9 25 -8 39 4 10 9 20 13 24 10 3 -3 10 3 16 14 8 16 6 25 -12 46
-24 27 -38 30 -74 16z"/>
<path d="M6291 8333 c-1 -16 5 -23 17 -23 10 0 13 3 6 8 -6 4 -14 14 -17 22
-4 10 -6 8 -6 -7z"/>
<path d="M4341 8324 c0 -11 3 -14 6 -6 3 7 2 16 -1 19 -3 4 -6 -2 -5 -13z"/>
<path d="M7725 8330 c-3 -5 -1 -10 4 -10 6 0 11 5 11 10 0 6 -2 10 -4 10 -3 0
-8 -4 -11 -10z"/>
<path d="M7608 8312 c-11 -39 2 -63 31 -60 27 3 38 33 11 33 -8 0 -20 11 -26
25 l-10 25 -6 -23z"/>
<path d="M4415 8300 c-4 -7 -1 -16 6 -21 12 -8 12 -11 -1 -19 -8 -5 -22 -10
-30 -11 -10 0 -8 -3 5 -8 11 -5 23 -4 26 2 4 5 11 7 16 4 13 -8 10 40 -3 53
-9 9 -14 9 -19 0z"/>
<path d="M6370 8257 c-10 -26 1 -40 26 -35 28 5 30 44 4 51 -16 4 -23 0 -30
-16z"/>
<path d="M7786 8265 c-3 -9 1 -18 10 -22 19 -7 28 2 21 22 -8 19 -23 19 -31 0z"/>
<path d="M4407 8215 c-23 -9 -26 -14 -15 -23 11 -9 18 -7 32 9 22 26 18 29
-17 14z"/>
<path d="M6231 8203 c1 -17 3 -21 6 -10 3 13 10 16 25 11 15 -4 19 -2 16 7 -3
8 -14 15 -26 17 -18 3 -22 -1 -21 -25z"/>
<path d="M7890 8209 c0 -11 27 -12 34 -1 2 4 -4 9 -15 9 -10 1 -19 -2 -19 -8z"/>
<path d="M6195 8161 c-3 -5 -2 -12 3 -15 5 -3 9 1 9 9 0 17 -3 19 -12 6z"/>
<path d="M6225 8160 c3 -5 8 -10 11 -10 2 0 4 5 4 10 0 6 -5 10 -11 10 -5 0
-7 -4 -4 -10z"/>
<path d="M6190 8120 c0 -13 18 -22 24 -11 3 5 -1 11 -9 15 -8 3 -15 1 -15 -4z"/>
<path d="M6287 8124 c-16 -16 -7 -44 14 -44 15 0 20 5 17 22 -3 22 -19 33 -31
22z"/>
<path d="M1955 8110 c3 -5 8 -10 11 -10 2 0 4 5 4 10 0 6 -5 10 -11 10 -5 0
-7 -4 -4 -10z"/>
<path d="M7810 8099 c0 -6 -4 -8 -9 -5 -15 10 -35 -22 -23 -36 6 -7 10 -17 9
-23 -1 -18 29 -16 47 4 11 12 15 27 12 39 -7 21 -36 38 -36 21z"/>
<path d="M7993 8103 c-15 -5 -17 -33 -3 -33 6 0 10 7 10 16 0 8 4 13 9 9 5 -3
12 -2 15 3 5 9 -11 11 -31 5z"/>
<path d="M7100 8090 c0 -5 5 -10 10 -10 6 0 10 5 10 10 0 6 -4 10 -10 10 -5 0
-10 -4 -10 -10z"/>
<path d="M1890 8080 c0 -5 5 -10 11 -10 5 0 7 5 4 10 -3 6 -8 10 -11 10 -2 0
-4 -4 -4 -10z"/>
<path d="M3180 8074 c0 -8 5 -12 10 -9 6 3 10 1 10 -4 0 -6 5 -11 10 -11 16 0
11 27 -6 34 -22 9 -24 8 -24 -10z"/>
<path d="M2090 8076 c0 -2 7 -6 15 -10 8 -3 15 -1 15 4 0 6 -7 10 -15 10 -8 0
-15 -2 -15 -4z"/>
<path d="M1966 8061 c-4 -7 -5 -15 -2 -18 9 -9 19 4 14 18 -4 11 -6 11 -12 0z"/>
<path d="M2040 8061 c0 -6 5 -13 10 -16 6 -3 10 1 10 9 0 9 -4 16 -10 16 -5 0
-10 -4 -10 -9z"/>
<path d="M6311 8044 c0 -11 3 -14 6 -6 3 7 2 16 -1 19 -3 4 -6 -2 -5 -13z"/>
<path d="M7304 8045 c-18 -14 -18 -16 -2 -28 18 -14 13 -30 -14 -40 -19 -7
-26 -57 -8 -57 6 0 10 -7 10 -15 0 -9 9 -15 25 -15 14 0 25 5 25 10 0 16 24 7
32 -12 9 -22 33 -17 57 11 20 23 18 56 -3 48 -7 -3 -13 4 -13 14 -1 10 4 19
12 19 22 0 29 22 12 35 -10 7 -17 17 -17 24 0 16 -30 14 -36 -3 -3 -8 -12 -12
-19 -10 -8 3 -11 12 -8 20 7 19 -27 18 -53 -1z"/>
<path d="M8083 8035 c0 -8 4 -12 9 -9 5 3 6 10 3 15 -9 13 -12 11 -12 -6z"/>
<path d="M2100 8030 c0 -5 5 -10 10 -10 6 0 10 5 10 10 0 6 -4 10 -10 10 -5 0
-10 -4 -10 -10z"/>
<path d="M6200 8014 c-13 -33 -13 -33 10 -27 11 3 18 9 15 13 -3 5 -1 11 5 15
6 4 8 11 5 16 -11 16 -25 10 -35 -17z"/>
<path d="M2140 8022 c0 -5 7 -15 15 -22 8 -7 15 -8 15 -2 0 5 -7 15 -15 22 -8
7 -15 8 -15 2z"/>
<path d="M6467 8008 c-20 -15 -30 -55 -16 -63 5 -4 7 -10 4 -15 -3 -4 5 -10
17 -13 36 -10 3 -37 -44 -37 -32 0 -46 6 -69 31 -16 17 -29 26 -29 21 0 -6 5
-14 10 -17 17 -10 11 -44 -10 -55 -16 -8 -21 -6 -31 11 -7 14 -14 18 -21 11
-13 -13 0 -52 17 -52 8 0 12 -6 9 -14 -6 -17 18 -27 37 -15 12 8 12 10 0 18
-19 12 -4 33 19 26 10 -3 21 -1 25 5 11 17 42 11 48 -10 3 -11 2 -18 -3 -15
-13 8 -34 -25 -23 -36 13 -13 50 -19 68 -12 18 6 20 30 3 35 -9 3 -7 10 6 23
17 17 19 17 28 2 12 -22 31 -21 52 2 14 15 15 24 6 40 -8 17 -8 21 3 21 20 0
28 37 12 50 -7 6 -16 21 -19 34 -8 34 -67 47 -99 24z"/>
<path d="M1852 7983 c2 -10 10 -18 18 -18 8 0 16 8 18 18 2 12 -3 17 -18 17
-15 0 -20 -5 -18 -17z"/>
<path d="M2122 7989 c2 -6 8 -10 13 -10 5 0 11 4 13 10 2 6 -4 11 -13 11 -9 0
-15 -5 -13 -11z"/>
<path d="M6285 7974 c-13 -14 -14 -19 -3 -25 22 -14 38 -10 38 10 0 28 -15 34
-35 15z"/>
<path d="M1727 7973 c-8 -7 11 -33 24 -33 5 0 9 7 9 15 0 9 -6 12 -17 8 -11
-4 -14 -3 -9 5 8 13 3 16 -7 5z"/>
<path d="M2061 7967 c-15 -15 -14 -42 3 -56 19 -16 72 -10 69 7 -2 6 4 12 12
12 8 0 15 8 15 18 0 11 -7 18 -20 18 -11 0 -20 -4 -20 -9 0 -5 -11 -2 -24 6
-17 12 -26 13 -35 4z"/>
<path d="M6214 7971 c5 -8 56 -3 56 5 0 2 -14 4 -31 4 -16 0 -28 -4 -25 -9z"/>
<path d="M7980 7949 c0 -25 33 -22 38 4 2 12 -3 17 -17 17 -15 0 -21 -6 -21
-21z"/>
<path d="M6192 7948 c6 -17 36 -34 44 -25 4 4 -1 14 -12 22 -23 18 -37 19 -32
3z"/>
<path d="M8085 7910 c-3 -5 1 -10 10 -10 9 0 13 5 10 10 -3 6 -8 10 -10 10 -2
0 -7 -4 -10 -10z"/>
<path d="M1633 7859 c-1 -10 2 -19 8 -19 11 0 12 27 1 34 -4 2 -9 -4 -9 -15z"/>
<path d="M8046 7841 c-4 -5 -2 -12 3 -15 5 -4 12 -2 15 3 4 5 2 12 -3 15 -5 4
-12 2 -15 -3z"/>
<path d="M1767 7812 c-21 -23 -21 -27 -1 -46 20 -20 34 -20 34 0 0 8 5 12 10
9 17 -11 23 24 7 40 -20 20 -30 19 -50 -3z"/>
<path d="M2850 7810 c0 -5 -7 -10 -15 -10 -10 0 -15 -10 -15 -26 0 -23 3 -26
29 -22 21 3 28 1 24 -9 -3 -7 0 -13 6 -13 22 0 11 -18 -15 -24 -16 -4 -32 -2
-42 6 -13 11 -15 10 -9 -4 9 -26 -2 -46 -22 -41 -12 3 -18 13 -17 31 1 18 -5
28 -16 30 -25 5 -51 -24 -43 -48 5 -14 2 -20 -9 -20 -19 0 -20 -9 -6 -44 5
-15 17 -26 28 -26 26 0 34 11 21 27 -13 15 -13 15 18 18 29 3 38 -23 16 -48
-18 -19 -17 -20 5 -8 16 8 28 9 42 1 27 -15 14 -38 -23 -42 -41 -4 -49 -40
-15 -68 28 -23 48 -25 48 -5 0 22 18 18 25 -5 6 -19 45 -29 45 -11 0 5 9 11
21 14 31 8 23 60 -11 67 -28 6 -39 38 -18 51 19 12 24 11 44 -8 15 -16 16 -15
9 16 -5 24 -4 31 4 27 6 -4 11 -2 11 4 0 7 8 9 23 4 30 -9 30 -9 18 -32 -11
-20 2 -42 24 -42 37 0 73 72 43 83 -9 3 -7 9 6 19 19 15 19 16 -3 47 -12 17
-29 31 -36 31 -17 0 -34 -30 -28 -47 7 -19 -13 -23 -36 -6 -16 11 -20 18 -12
26 6 6 11 15 11 20 0 5 -7 1 -16 -8 -21 -20 -44 -3 -44 32 0 20 3 23 13 14 10
-8 18 -7 31 2 15 11 15 14 1 35 -16 22 -65 31 -65 12 0 -5 -7 -10 -16 -10 -8
0 -12 5 -9 10 3 6 -1 10 -9 10 -9 0 -16 -4 -16 -10z"/>
<path d="M8095 7781 c4 -8 2 -17 -6 -22 -9 -6 -10 -9 -2 -9 19 0 27 21 13 33
-10 9 -11 9 -5 -2z"/>
<path d="M7899 7767 c-23 -17 -32 -62 -15 -76 7 -6 17 -7 21 -3 5 4 5 -1 2
-10 -4 -10 -5 -18 -3 -18 3 0 12 -3 22 -7 13 -5 16 -3 11 10 -3 9 -3 17 2 17
14 0 31 -26 23 -35 -4 -5 1 -5 11 -2 10 4 21 7 23 7 2 0 4 5 4 11 0 5 -4 7
-10 4 -5 -3 -10 1 -10 9 0 9 -8 16 -19 16 -28 0 -36 19 -15 35 15 11 17 18 8
32 -14 22 -34 26 -55 10z"/>
<path d="M1605 7760 c-4 -6 -3 -16 3 -22 6 -6 12 -6 17 2 4 6 3 16 -3 22 -6 6
-12 6 -17 -2z"/>
<path d="M8040 7750 c0 -5 5 -10 10 -10 6 0 10 5 10 10 0 6 -4 10 -10 10 -5 0
-10 -4 -10 -10z"/>
<path d="M1535 7730 c3 -5 8 -10 11 -10 2 0 4 5 4 10 0 6 -5 10 -11 10 -5 0
-7 -4 -4 -10z"/>
<path d="M5275 7701 c-3 -5 -2 -12 3 -15 5 -3 9 1 9 9 0 17 -3 19 -12 6z"/>
<path d="M8000 7700 c0 -5 5 -10 10 -10 6 0 10 5 10 10 0 6 -4 10 -10 10 -5 0
-10 -4 -10 -10z"/>
<path d="M8046 7694 c-4 -9 -4 -19 -1 -22 2 -3 7 3 11 12 4 9 4 19 1 22 -2 3
-7 -3 -11 -12z"/>
<path d="M5230 7688 c0 -4 4 -8 9 -8 6 0 12 4 15 8 3 5 -1 9 -9 9 -8 0 -15 -4
-15 -9z"/>
<path d="M1555 7680 c3 -5 8 -10 11 -10 2 0 4 5 4 10 0 6 -5 10 -11 10 -5 0
-7 -4 -4 -10z"/>
<path d="M1613 7610 c3 -13 0 -20 -8 -20 -8 0 -16 -4 -19 -9 -3 -4 5 -7 17 -6
12 1 27 3 34 4 6 0 10 9 8 19 -2 9 -4 20 -4 25 -1 4 -8 7 -17 7 -11 0 -15 -6
-11 -20z"/>
<path d="M1885 7620 c-3 -5 -1 -10 4 -10 6 0 11 5 11 10 0 6 -2 10 -4 10 -3 0
-8 -4 -11 -10z"/>
<path d="M7338 7471 c-10 -3 -14 -11 -10 -17 4 -6 15 -9 24 -5 10 3 14 11 10
17 -4 6 -15 9 -24 5z"/>
<path d="M1949 7463 c-1 -5 -1 -11 -1 -14 1 -3 -6 -6 -14 -6 -7 0 -14 4 -14 9
0 17 -36 7 -49 -14 -11 -18 -11 -23 0 -32 19 -15 22 -37 5 -30 -17 6 -31 -27
-15 -36 6 -4 10 -11 8 -16 -1 -5 5 -10 14 -12 9 -2 17 1 17 7 0 6 9 11 20 11
13 0 18 -5 14 -15 -4 -8 -1 -16 5 -16 6 -1 17 -2 24 -3 16 -1 47 30 47 49 0 9
-6 18 -13 21 -8 3 -14 11 -14 19 0 8 6 15 14 15 17 0 17 38 -1 56 -15 15 -45
19 -47 7z"/>
<path d="M2403 7420 c1 -11 7 -20 14 -20 6 0 11 9 10 20 -1 11 -7 20 -14 20
-6 0 -11 -9 -10 -20z"/>
<path d="M5215 7411 c-6 -11 13 -26 22 -17 4 3 0 6 -8 6 -11 0 -11 2 1 10 9 6
10 10 3 10 -6 0 -14 -4 -18 -9z"/>
<path d="M1526 7289 c4 -7 7 -24 8 -38 1 -34 39 -37 44 -3 2 12 -2 22 -8 22
-6 0 -8 5 -4 12 5 8 2 9 -9 5 -10 -3 -17 -2 -17 3 0 6 -5 10 -11 10 -5 0 -7
-5 -3 -11z"/>
<path d="M3191 7261 c-8 -5 -9 -11 -3 -15 5 -3 12 1 16 9 6 17 6 18 -13 6z"/>
<path d="M1445 7200 c-3 -5 1 -10 10 -10 9 0 13 5 10 10 -3 6 -8 10 -10 10 -2
0 -7 -4 -10 -10z"/>
<path d="M1390 7167 c0 -10 8 -17 18 -17 9 0 13 4 7 8 -5 4 -13 11 -17 16 -5
5 -8 2 -8 -7z"/>
<path d="M8466 7162 c-3 -6 1 -13 10 -16 23 -9 28 -2 10 13 -8 7 -17 8 -20 3z"/>
<path d="M7520 7147 c-34 -17 -36 -41 -5 -55 14 -6 25 -18 25 -26 0 -20 -30
-29 -48 -14 -13 11 -14 9 -8 -15 5 -23 2 -29 -19 -39 -32 -14 -39 -7 -40 40 0
31 -4 38 -23 40 -34 5 -75 -35 -62 -59 13 -23 13 -42 1 -34 -19 11 -29 -27
-14 -56 19 -37 55 -39 71 -4 11 24 42 35 42 16 0 -5 2 -16 5 -23 4 -9 -4 -19
-17 -26 l-23 -11 25 4 c39 8 54 -6 39 -38 -11 -24 -13 -25 -24 -10 -7 9 -17
13 -23 9 -18 -11 -14 -51 6 -69 20 -18 52 -23 52 -8 0 5 7 12 16 15 8 3 13 2
10 -2 -2 -4 -1 -14 4 -22 14 -22 64 11 68 44 3 27 -2 30 -46 26 -20 -1 -22 1
-13 18 6 11 8 22 4 25 -13 13 27 18 49 6 23 -12 23 -12 4 10 -19 21 -19 22 0
36 23 17 34 18 54 5 13 -8 13 -11 1 -19 -19 -12 -6 -41 17 -41 37 0 70 61 40
73 -10 4 -10 8 1 16 12 8 13 14 3 35 -14 31 -57 38 -50 8 4 -14 -1 -18 -19
-18 -20 0 -24 4 -20 22 2 13 -3 26 -15 33 -23 14 -13 35 13 28 24 -6 33 7 24
40 -4 19 -11 24 -27 20 -13 -4 -26 1 -37 14 -14 16 -19 17 -41 6z"/>
<path d="M8386 7152 c-3 -5 1 -9 9 -9 8 0 12 4 9 9 -3 4 -7 8 -9 8 -2 0 -6 -4
-9 -8z"/>
<path d="M1835 7140 c3 -5 8 -10 11 -10 2 0 4 5 4 10 0 6 -5 10 -11 10 -5 0
-7 -4 -4 -10z"/>
<path d="M8430 7120 c0 -5 4 -10 9 -10 6 0 13 5 16 10 3 6 -1 10 -9 10 -9 0
-16 -4 -16 -10z"/>
<path d="M1457 7105 c-8 -18 11 -31 25 -17 11 11 3 32 -12 32 -4 0 -10 -7 -13
-15z"/>
<path d="M8319 7103 c-8 -9 -9 -14 -3 -10 7 4 14 -2 17 -15 7 -27 -1 -38 -13
-18 -7 12 -10 11 -16 -4 -4 -11 -2 -21 7 -27 8 -4 15 -13 15 -19 1 -5 2 -15 3
-21 0 -6 7 -9 15 -6 7 3 18 1 23 -4 11 -11 53 17 53 35 0 25 -27 39 -50 26
-19 -10 -20 -9 -16 17 3 15 13 34 23 40 9 7 13 16 9 20 -4 4 -12 0 -17 -10
-12 -21 -33 -23 -25 -2 7 20 -8 19 -25 -2z"/>
<path d="M8507 7104 c-8 -8 1 -24 14 -24 5 0 9 7 9 15 0 15 -12 20 -23 9z"/>
<path d="M8597 7103 c-4 -3 -7 -11 -7 -17 0 -6 5 -5 12 2 6 6 9 14 7 17 -3 3
-9 2 -12 -2z"/>
<path d="M1366 7081 c-4 -5 3 -7 14 -4 23 6 26 13 6 13 -8 0 -17 -4 -20 -9z"/>
<path d="M3357 7056 c-4 -10 -1 -13 9 -9 7 3 14 9 14 14 0 14 -17 10 -23 -5z"/>
<path d="M1395 7030 c3 -5 8 -10 11 -10 2 0 4 5 4 10 0 6 -5 10 -11 10 -5 0
-7 -4 -4 -10z"/>
<path d="M1621 6991 c-18 -21 -19 -28 -8 -36 8 -5 12 -15 10 -22 -6 -17 11
-24 45 -17 34 7 48 37 26 58 -8 8 -14 19 -14 24 0 23 -39 19 -59 -7z"/>
<path d="M8587 7014 c-14 -14 -7 -34 12 -34 12 0 18 6 17 17 -3 19 -18 27 -29
17z"/>
<path d="M8685 7000 c3 -5 8 -10 11 -10 2 0 4 5 4 10 0 6 -5 10 -11 10 -5 0
-7 -4 -4 -10z"/>
<path d="M1437 6963 c6 -16 5 -17 -13 -3 -17 14 -18 14 -6 -2 8 -9 20 -14 28
-11 18 7 18 33 -1 33 -10 0 -12 -6 -8 -17z"/>
<path d="M8696 6943 c-3 -3 -3 -10 0 -14 7 -12 34 -11 34 0 0 11 -26 22 -34
14z"/>
<path d="M5120 6898 c0 -7 9 -14 20 -15 13 -1 20 4 19 15 0 11 -2 13 -6 4 -4
-10 -8 -10 -19 -1 -11 9 -14 8 -14 -3z"/>
<path d="M3543 6846 c3 -8 0 -20 -8 -26 -10 -8 -14 -8 -18 2 -4 10 -8 10 -16
-2 -6 -9 -7 -16 -1 -18 6 -2 10 -10 10 -18 0 -16 26 -19 35 -4 3 6 0 10 -7 10
-8 0 -6 6 5 18 15 14 19 15 26 3 7 -11 11 -9 20 8 10 17 9 21 -4 21 -9 0 -13
5 -10 10 3 6 -4 10 -15 10 -15 0 -20 -5 -17 -14z"/>
<path d="M8601 6811 c-21 -16 -22 -20 -10 -39 17 -27 31 -28 53 -3 15 17 15
19 -1 39 -18 21 -19 21 -42 3z"/>
<path d="M8781 6821 c-7 -5 -11 -15 -9 -22 3 -10 8 -7 17 9 13 24 12 26 -8 13z"/>
<path d="M1469 6778 c-5 -10 -5 -19 0 -22 5 -3 12 2 15 11 6 15 8 15 16 3 7
-11 12 -12 21 -3 6 6 8 16 5 21 -10 16 -47 10 -57 -10z"/>
<path d="M8765 6710 c-7 -12 2 -30 16 -30 12 0 12 27 0 35 -5 3 -12 1 -16 -5z"/>
<path d="M1500 6675 c0 -8 5 -15 10 -15 6 0 10 7 10 15 0 8 -4 15 -10 15 -5 0
-10 -7 -10 -15z"/>
<path d="M1627 6668 c-4 -14 0 -26 11 -34 24 -19 31 -17 44 12 10 21 9 27 -3
35 -24 15 -46 10 -52 -13z"/>
<path d="M7100 6681 c0 -6 4 -13 10 -16 6 -3 7 1 4 9 -7 18 -14 21 -14 7z"/>
<path d="M1999 6662 c-36 -21 -52 -73 -32 -101 18 -26 59 -27 74 -2 19 29 46
15 51 -25 3 -25 -1 -38 -11 -44 -9 -5 -13 -10 -9 -10 11 0 -38 -46 -56 -53
-16 -6 -21 -28 -10 -40 11 -10 34 5 34 23 0 28 38 56 58 44 23 -15 28 -44 8
-44 -9 0 -16 -5 -16 -11 0 -6 12 -9 28 -7 15 2 26 8 25 16 -2 6 3 12 10 12 7
0 13 9 14 20 2 23 -7 26 -25 8 -7 -7 -13 -8 -13 -2 -5 32 -8 51 -14 70 -5 15
-2 21 9 21 8 0 17 -6 20 -14 9 -22 35 -15 42 12 8 33 -1 55 -23 53 -33 -2 -53
2 -53 12 0 6 7 10 15 10 22 0 18 33 -6 49 -15 9 -24 10 -28 2 -5 -8 -13 -6
-27 4 -23 18 -32 17 -65 -3z"/>
<path d="M1461 6634 c0 -11 3 -14 6 -6 3 7 2 16 -1 19 -3 4 -6 -2 -5 -13z"/>
<path d="M7897 6616 c-6 -15 1 -26 15 -26 5 0 6 5 3 10 -3 6 -1 10 4 10 6 0
11 5 11 10 0 15 -27 12 -33 -4z"/>
<path d="M8800 6620 c0 -5 5 -10 11 -10 5 0 7 5 4 10 -3 6 -8 10 -11 10 -2 0
-4 -4 -4 -10z"/>
<path d="M1530 6599 c0 -6 -7 -8 -16 -5 -8 3 -12 2 -9 -4 10 -15 35 -12 35 5
0 8 -2 15 -5 15 -3 0 -5 -5 -5 -11z"/>
<path d="M3715 6589 c-4 -6 -4 -13 -1 -16 3 -4 6 -1 6 6 0 7 5 9 10 6 6 -3 10
-1 10 4 0 14 -17 14 -25 0z"/>
<path d="M8712 6578 c-15 -15 -15 -26 1 -42 8 -8 20 -10 32 -5 20 7 20 8 1 8
-15 1 -17 4 -9 12 11 11 7 39 -6 39 -4 0 -12 -5 -19 -12z"/>
<path d="M8771 6543 c-1 -17 16 -25 25 -12 4 7 3 9 -4 5 -5 -3 -13 0 -15 6 -4
9 -6 10 -6 1z"/>
<path d="M6882 6531 c2 -7 7 -12 11 -12 12 1 9 15 -3 20 -7 2 -11 -2 -8 -8z"/>
<path d="M8320 6523 c-32 -12 -41 -53 -12 -53 14 0 15 -2 2 -10 -8 -5 -10 -10
-5 -10 6 -1 0 -5 -12 -10 -29 -12 -29 -37 -1 -62 25 -21 44 -19 42 6 -1 12 1
14 10 7 9 -7 16 -7 24 1 8 8 9 5 5 -11 -4 -16 -1 -21 15 -21 26 0 56 40 42 54
-14 14 -12 26 5 26 18 0 19 14 5 41 -11 20 -40 27 -40 9 0 -18 -25 -6 -30 15
-6 21 -25 28 -50 18z"/>
<path d="M1613 6508 c-16 -26 -12 -38 8 -25 20 12 26 37 10 37 -6 0 -13 -6
-18 -12z"/>
<path d="M1734 6489 c-3 -6 1 -18 10 -27 16 -16 18 -16 30 0 7 10 17 14 22 10
4 -4 2 1 -5 11 -15 19 -46 23 -57 6z"/>
<path d="M1617 6455 c-4 -8 -3 -16 1 -19 4 -3 9 4 9 15 2 23 -3 25 -10 4z"/>
<path d="M1655 6440 c3 -5 8 -10 11 -10 2 0 4 5 4 10 0 6 -5 10 -11 10 -5 0
-7 -4 -4 -10z"/>
<path d="M1875 6410 c-4 -7 -3 -16 2 -21 12 -12 45 0 40 15 -5 15 -34 19 -42
6z"/>
<path d="M1646 6398 c3 -5 10 -6 15 -3 13 9 11 12 -6 12 -8 0 -12 -4 -9 -9z"/>
<path d="M1686 6395 c-3 -9 0 -15 9 -15 8 0 15 7 15 15 0 8 -4 15 -9 15 -5 0
-11 -7 -15 -15z"/>
<path d="M6630 6390 c0 -5 -6 -9 -12 -7 -7 1 -13 -5 -13 -13 0 -8 8 -14 18
-14 9 1 17 -2 17 -8 0 -5 4 -7 10 -3 5 3 7 12 3 20 -3 8 0 15 7 15 6 0 8 5 5
10 -3 6 -13 10 -21 10 -8 0 -14 -4 -14 -10z"/>
<path d="M3875 6379 c-4 -6 -4 -13 -1 -16 3 -4 6 -1 6 6 0 7 5 9 10 6 6 -3 10
-1 10 4 0 14 -17 14 -25 0z"/>
<path d="M1785 6371 c-3 -6 1 -21 9 -32 15 -22 15 -22 12 5 -3 31 -11 42 -21
27z"/>
<path d="M2050 6352 c0 -7 -8 -12 -17 -10 -10 1 -24 -1 -32 -6 -8 -5 -16 -4
-21 4 -4 7 -13 9 -19 5 -9 -5 -9 -10 0 -21 13 -16 54 -20 44 -4 -3 6 4 10 17
10 18 0 20 -2 8 -10 -8 -5 -10 -10 -4 -10 22 0 44 25 34 40 -7 11 -10 11 -10
2z"/>
<path d="M6661 6347 c-6 -8 -7 -18 -3 -22 4 -5 2 -5 -5 -1 -6 3 -14 2 -18 -4
-3 -6 1 -13 10 -16 17 -7 58 33 49 47 -8 13 -20 11 -33 -4z"/>
<path d="M1830 6340 c0 -5 5 -10 11 -10 6 0 9 -6 6 -14 -4 -9 2 -13 19 -13 16
0 24 5 24 16 0 13 -2 13 -9 2 -7 -11 -12 -10 -22 8 -15 22 -29 28 -29 11z"/>
<path d="M4653 6339 c-18 -5 -35 -14 -38 -20 -10 -16 4 -59 19 -59 8 0 14 -11
14 -25 0 -20 -6 -25 -25 -25 -13 0 -26 7 -29 15 -8 21 -18 19 -29 -7 -13 -28
-51 -34 -58 -9 -2 11 0 24 6 30 18 18 14 49 -8 61 -24 13 -60 10 -90 -7 -18
-11 -18 -14 -7 -34 12 -19 12 -21 -2 -16 -9 4 -16 3 -16 -2 0 -4 -11 -6 -25
-3 -30 5 -58 -15 -52 -38 2 -9 -4 -22 -14 -28 -27 -17 -19 -96 13 -125 14 -13
30 -21 37 -19 6 2 19 -2 28 -9 14 -12 15 -11 9 8 -4 13 -2 24 5 29 8 5 9 3 4
-7 -8 -12 -6 -12 8 0 9 7 17 24 17 37 0 17 8 27 24 34 41 15 61 16 58 2 -1 -8
3 -12 10 -10 6 2 21 -3 31 -11 43 -35 54 -52 49 -76 -2 -14 0 -25 7 -25 7 0 8
-8 1 -24 -6 -18 -5 -28 5 -36 8 -7 13 -16 10 -20 -3 -5 -1 -11 5 -15 17 -11
12 -80 -8 -98 -10 -10 -22 -14 -25 -10 -4 3 -16 -2 -27 -12 -14 -13 -20 -14
-20 -5 0 7 -3 10 -6 7 -4 -3 -15 -2 -26 4 -18 10 -19 8 -12 -28 4 -21 3 -35
-1 -31 -4 4 -19 -2 -33 -12 -13 -11 -29 -20 -34 -20 -4 0 -36 28 -69 61 l-62
62 29 -49 c15 -27 32 -51 36 -52 5 -2 6 -8 2 -13 -3 -5 -2 -9 3 -9 4 0 9 -13
10 -29 2 -24 -2 -30 -20 -33 -12 -2 -21 -9 -19 -16 2 -13 -10 -16 -22 -5 -3 4
-16 8 -27 10 -19 3 -21 0 -15 -32 4 -21 3 -35 -3 -35 -6 0 -18 -15 -27 -32
-10 -18 -19 -28 -21 -21 -2 6 -15 10 -28 7 -13 -2 -27 0 -30 6 -3 5 -18 10
-32 10 -17 0 -27 7 -30 21 -4 15 -12 20 -27 17 -12 -3 -27 0 -33 6 -6 6 -25
22 -42 35 -17 13 -29 26 -26 30 2 4 -4 21 -13 37 -18 29 -18 79 -1 69 5 -4 9
3 9 14 0 25 20 38 31 20 7 -12 9 -11 9 1 0 11 2 12 8 3 7 -10 12 -10 27 1 11
8 25 11 33 9 10 -4 11 1 6 21 -4 17 -2 26 6 26 12 0 -9 40 -35 66 -15 16 -82
27 -90 15 -3 -6 -19 -8 -35 -4 -25 4 -31 1 -42 -22 -10 -22 -9 -28 3 -36 11
-7 11 -9 -3 -9 -10 0 -18 -5 -18 -12 0 -7 -7 -5 -17 5 -20 18 -39 8 -60 -31
-26 -44 -4 -93 34 -77 31 13 52 15 58 5 3 -6 2 -10 -3 -10 -6 0 -8 -8 -5 -18
7 -28 -20 -46 -47 -32 -32 17 -36 4 -6 -15 21 -14 24 -20 15 -31 -6 -8 -8 -14
-3 -14 4 0 -1 -6 -11 -14 -23 -17 -44 -11 -40 12 3 23 -13 42 -37 42 -22 0
-40 -16 -53 -45 -14 -34 -14 -45 3 -54 20 -11 25 -41 6 -41 -8 0 -14 -3 -15
-7 0 -5 -2 -16 -4 -26 -2 -9 2 -23 9 -30 7 -7 11 -17 9 -23 -2 -6 7 -23 21
-38 19 -23 33 -29 70 -31 38 -1 46 1 46 16 0 13 5 17 18 12 14 -6 15 -4 4 9
-7 8 -10 22 -6 31 3 9 -2 20 -14 26 -23 12 -26 57 -5 65 8 3 12 10 9 15 -6 10
24 25 32 16 3 -3 -1 -5 -8 -5 -7 0 -10 -3 -7 -6 4 -4 13 -1 22 6 8 7 15 9 15
6 0 -4 9 -2 20 4 14 8 26 8 41 -1 15 -8 19 -8 15 0 -9 14 -3 14 28 -1 14 -6
28 -19 31 -30 4 -12 16 -18 34 -18 18 0 42 -12 64 -33 37 -33 38 -40 28 -123
0 -7 -18 -15 -38 -19 -36 -7 -37 -8 -16 -18 25 -11 42 -49 24 -55 -6 -2 -11
-8 -11 -13 0 -6 4 -8 8 -5 4 2 9 -4 9 -15 2 -17 -1 -18 -13 -8 -12 10 -13 9
-8 -5 6 -15 -2 -16 -77 -12 -46 2 -92 7 -101 11 -11 4 -18 3 -18 -4 0 -6 8
-11 18 -12 53 -2 172 -36 173 -49 1 -6 1 -21 1 -35 0 -41 -1 -43 -34 -55 l-33
-11 28 -15 c28 -15 30 -20 29 -66 0 -16 3 -28 8 -28 5 0 -1 -10 -13 -23 -12
-13 -30 -22 -40 -21 -11 2 -15 -1 -11 -8 5 -7 0 -9 -14 -6 -19 5 -37 3 -102
-13 -8 -2 -18 -8 -21 -13 -11 -14 -57 -15 -63 -1 -2 7 -19 16 -37 20 -19 4
-33 15 -36 26 -3 10 -9 16 -15 13 -10 -7 -5 62 6 73 4 5 13 8 19 8 7 0 13 9
16 20 2 11 8 23 15 27 7 5 5 8 -6 8 -10 0 -18 7 -18 15 0 18 -31 35 -65 35
-31 0 -75 -27 -75 -46 0 -8 -7 -14 -15 -14 -22 0 -32 -50 -12 -65 18 -13 10
-31 -18 -37 -16 -3 -20 -11 -18 -42 3 -47 18 -66 50 -66 16 0 27 7 30 20 6 24
16 25 33 5 7 -8 17 -12 22 -9 13 9 -12 -39 -26 -48 -7 -5 -6 -8 4 -8 26 0 48
-34 39 -58 -8 -22 -9 -22 -44 -5 -49 23 -70 10 -70 -46 -1 -44 26 -84 40 -61
12 20 36 -9 29 -36 -7 -28 10 -54 36 -54 10 0 20 -6 23 -14 3 -8 24 -15 50
-17 25 -2 43 -1 40 4 -2 4 2 7 10 7 22 0 56 45 46 61 -5 9 -3 16 9 21 16 6 16
7 0 7 -10 1 -27 10 -38 21 -11 11 -27 20 -36 20 -19 0 -43 28 -44 50 0 9 9 23
20 33 11 9 20 25 20 35 0 24 62 55 111 56 22 1 43 6 47 12 4 6 32 11 63 12 51
0 59 -3 78 -29 22 -30 28 -74 11 -84 -20 -12 -10 -27 15 -23 18 4 33 -3 54
-23 26 -24 28 -29 15 -47 -7 -11 -10 -23 -6 -27 4 -5 2 -5 -4 -2 -5 3 -28 -11
-50 -31 -22 -21 -50 -45 -64 -55 -13 -9 -21 -20 -17 -24 4 -3 13 1 20 9 6 9
28 25 47 35 19 10 49 28 65 40 23 16 35 19 48 12 9 -6 17 -6 17 -2 0 4 8 -8
18 -27 16 -31 16 -38 4 -57 -14 -22 -13 -23 19 -24 19 -1 40 -1 48 0 7 2 10
-2 7 -7 -7 -12 18 -34 29 -24 4 4 5 -14 2 -40 -6 -48 -23 -87 -44 -101 -7 -4
-13 -18 -13 -31 0 -13 -7 -29 -15 -36 -8 -7 -12 -16 -9 -21 3 -5 1 -9 -5 -9
-5 0 -16 -6 -23 -12 -17 -17 -78 -38 -109 -38 -21 0 -66 19 -47 20 4 0 3 11
-2 25 -5 14 -6 25 -1 25 5 0 8 6 6 13 -10 41 -18 55 -30 51 -7 -3 -16 -1 -19
5 -10 15 -58 -6 -79 -34 -10 -14 -18 -37 -17 -52 0 -16 1 -41 1 -57 1 -36 32
-71 54 -62 9 3 13 11 9 17 -5 8 -3 9 5 5 7 -5 10 -14 7 -22 -3 -8 -1 -14 4
-14 6 0 5 -8 -2 -19 -9 -15 -9 -23 1 -35 7 -9 17 -14 21 -11 4 3 13 -2 20 -10
17 -21 36 -19 61 6 20 20 20 21 3 40 -25 27 -5 47 33 33 23 -8 28 -16 26 -40
-2 -28 -2 -29 15 -9 24 28 51 28 64 -1 14 -30 7 -37 -43 -43 -13 -2 -19 -33
-9 -51 13 -23 66 -51 86 -43 7 3 14 12 14 21 0 8 3 12 7 9 3 -4 12 -2 20 4 10
9 13 7 13 -9 0 -28 39 -40 56 -17 7 9 17 14 22 11 5 -3 24 7 42 22 26 23 32
36 32 67 0 26 -6 41 -18 49 -41 24 -59 23 -82 -3 -16 -18 -25 -22 -28 -13 -3
6 -14 12 -25 12 -20 0 -54 44 -45 58 3 6 -1 15 -9 22 -11 9 -12 17 -4 31 5 10
6 19 2 19 -4 0 -2 4 5 9 7 4 15 14 16 22 6 29 18 49 27 43 5 -3 9 5 9 17 0 12
7 27 16 33 8 6 16 19 17 28 4 23 27 48 44 48 8 0 12 4 9 9 -4 5 1 8 10 7 8 -1
19 -8 24 -16 4 -7 15 -10 23 -7 14 5 29 -17 32 -45 1 -20 16 -17 27 6 9 21 17
26 32 22 12 -3 26 -6 32 -6 6 0 21 -9 34 -20 13 -11 19 -20 14 -20 -6 0 -9
-15 -8 -32 1 -18 3 -49 4 -68 l2 -35 9 35 c5 19 11 49 13 65 5 50 23 70 66 70
33 0 39 -3 52 -34 l15 -35 15 30 c11 22 20 29 41 27 15 -1 27 2 27 8 0 14 33
5 58 -16 12 -11 22 -29 22 -42 0 -12 5 -25 11 -29 6 -3 9 -18 6 -33 -3 -15 1
-33 8 -41 18 -20 22 -104 7 -123 -7 -8 -10 -22 -6 -30 4 -11 -4 -22 -25 -35
-17 -10 -28 -23 -23 -28 4 -4 0 -3 -10 4 -9 7 -18 9 -20 4 -6 -18 -48 7 -48
29 0 12 -5 19 -12 16 -7 -2 -21 2 -30 11 -16 14 -18 13 -18 -1 0 -10 -5 -17
-11 -17 -18 0 -38 -32 -39 -60 0 -31 35 -90 54 -90 8 0 16 -7 20 -15 6 -17 66
-21 66 -5 0 18 25 6 30 -15 5 -15 15 -20 42 -20 45 -1 70 16 73 50 3 22 -5 30
-27 26 -4 0 -12 8 -18 18 -8 16 -6 21 10 26 11 4 18 11 15 16 -4 5 -2 9 4 9 5
0 13 -5 16 -10 4 -6 10 -8 15 -5 4 3 13 -7 18 -22 l10 -28 1 34 c1 26 4 32 17
27 8 -3 13 -2 10 3 -3 5 1 11 9 15 8 3 15 1 15 -4 0 -6 5 -9 12 -8 19 4 16
-25 -5 -45 -16 -17 -17 -21 -4 -40 12 -18 24 -22 58 -20 49 2 80 26 61 45 -7
7 -12 16 -12 22 0 5 3 6 7 3 3 -4 12 -2 20 4 9 9 13 8 13 0 0 -18 35 -13 54 8
9 10 14 25 10 35 -4 10 -1 16 9 16 20 0 26 20 23 71 -4 52 -47 95 -78 78 -12
-6 -18 -6 -18 1 0 5 -10 0 -22 -12 -20 -20 -24 -33 -27 -78 -1 -12 -3 -12 -10
-2 -7 11 -9 11 -14 -1 -6 -15 -67 -12 -67 5 0 5 -4 6 -10 3 -5 -3 -10 -1 -10
4 0 6 -4 11 -10 11 -15 0 -49 37 -59 63 -5 13 -9 39 -9 59 0 19 -6 46 -13 59
-19 36 -21 105 -4 119 8 7 12 16 9 21 -3 5 6 9 21 9 14 0 28 7 31 15 5 11 10
13 19 5 6 -5 14 -8 17 -5 3 3 11 -1 18 -10 19 -23 27 -18 22 16 -4 25 1 36 24
55 31 25 54 31 54 14 0 -6 5 -9 12 -8 6 2 17 -7 23 -19 7 -13 15 -20 18 -16 4
3 7 -1 7 -10 0 -9 4 -17 9 -17 5 0 25 -25 46 -55 20 -30 38 -55 40 -55 9 0 -9
36 -37 74 -15 22 -28 46 -28 53 0 7 -4 13 -10 13 -5 0 -10 9 -10 21 0 11 -3
18 -7 16 -5 -3 -9 8 -10 24 -2 20 3 32 15 36 9 4 23 13 31 20 13 14 53 8 59
-8 2 -5 7 -9 12 -9 10 0 7 46 -3 57 -10 9 13 34 25 27 5 -3 12 2 14 13 6 20
32 22 74 5 14 -5 28 -8 33 -5 4 2 7 -1 7 -7 0 -6 4 -9 9 -6 4 3 13 -5 19 -18
8 -18 18 -24 36 -22 14 2 23 -1 20 -6 -3 -5 3 -12 15 -15 12 -3 21 -12 21 -19
0 -8 5 -13 12 -12 11 3 14 -2 17 -36 0 -8 8 -22 17 -30 8 -9 10 -16 4 -16 -6
0 -10 -15 -8 -35 1 -19 -1 -37 -5 -41 -4 -4 -7 -1 -7 7 -1 10 -5 8 -15 -5 -8
-11 -15 -14 -15 -7 0 7 -5 9 -10 6 -6 -4 -17 -2 -24 4 -10 9 -15 8 -20 -4 -3
-8 -12 -15 -21 -15 -25 0 -24 -74 2 -102 24 -26 81 -42 98 -28 8 6 22 9 32 6
26 -8 55 18 51 46 -2 14 2 22 9 21 7 -2 10 4 7 15 -4 11 0 9 14 -7 15 -19 23
-21 39 -13 29 16 45 75 26 101 -13 20 -60 31 -49 12 4 -5 -3 -7 -13 -4 -21 5
-35 29 -25 44 3 5 10 7 15 4 5 -4 9 1 9 9 0 13 5 14 28 6 l27 -10 -22 18 c-19
17 -20 22 -8 45 7 14 11 28 8 31 -3 2 5 2 17 -1 13 -3 23 -16 27 -33 3 -16 13
-30 23 -33 25 -6 63 21 56 40 -3 8 -2 12 3 9 5 -3 12 1 15 10 7 18 -11 47 -25
39 -4 -3 -7 4 -6 15 1 11 7 20 14 20 7 0 13 3 14 8 0 4 2 17 5 29 2 12 -2 23
-11 27 -8 3 -12 12 -9 21 10 26 -40 67 -85 70 -32 2 -40 -2 -45 -18 -4 -18 -7
-19 -23 -7 -15 12 -16 12 -5 0 6 -8 12 -24 12 -37 0 -13 6 -26 14 -29 10 -4
14 -18 13 -40 -2 -31 -6 -36 -42 -46 -75 -20 -120 -15 -160 21 -21 18 -44 30
-51 27 -10 -4 -14 0 -12 12 2 9 -3 16 -9 14 -7 -1 -13 2 -13 8 0 6 -5 9 -11 8
-6 -2 -17 6 -24 17 -13 18 -12 26 8 65 17 34 28 45 45 44 12 -1 22 3 22 7 0 5
-8 9 -17 9 -15 0 -16 2 -3 10 8 5 10 10 4 10 -6 0 -10 16 -10 35 1 28 5 35 26
40 27 6 136 -1 150 -10 5 -3 11 -1 15 5 3 5 -2 11 -12 11 -43 3 -62 7 -80 14
-10 5 -27 9 -38 10 -39 3 -54 15 -49 43 7 44 12 52 36 61 l23 9 -27 12 c-15 7
-25 16 -23 21 3 4 1 10 -3 13 -9 5 -8 27 3 63 6 19 37 37 58 34 4 -1 7 4 7 9
0 6 15 10 34 10 18 0 39 6 45 14 13 15 101 26 101 13 0 -5 4 -5 10 -2 6 4 7
-1 3 -11 -5 -13 -3 -15 7 -9 8 5 18 1 27 -10 9 -14 13 -15 13 -4 0 11 2 11 9
1 14 -22 -3 -102 -21 -102 -6 0 -7 -7 -4 -15 3 -9 -1 -18 -9 -22 -13 -5 -13
-7 2 -19 10 -7 14 -14 9 -14 -6 0 -1 -6 9 -14 31 -22 125 -1 125 28 0 9 8 20
18 25 22 12 28 61 7 61 -8 0 -15 3 -15 8 0 14 15 27 30 27 21 0 23 74 3 98
-16 17 -53 24 -53 9 0 -5 -9 -19 -20 -32 l-20 -23 -10 27 c-14 38 -13 56 4 56
8 0 17 4 21 9 3 6 -6 8 -20 5 -23 -4 -30 4 -26 29 0 4 -4 7 -11 7 -8 0 -8 5 3
15 12 12 20 13 47 3 47 -18 67 4 58 66 -7 42 -15 51 -40 47 -4 -1 -16 1 -27 4
-15 5 -16 9 -7 24 13 22 5 49 -17 56 -22 7 -37 14 -63 29 -31 18 -88 1 -110
-32 -20 -31 -22 -72 -3 -72 8 0 11 -3 8 -7 -13 -13 14 -30 42 -27 20 2 31 -2
37 -14 14 -34 10 -72 -13 -98 -13 -15 -23 -31 -23 -35 0 -15 -72 -39 -101 -34
-21 4 -31 1 -35 -10 -3 -8 -10 -12 -15 -9 -5 3 -9 0 -9 -6 0 -6 -6 -10 -12 -9
-23 5 -78 -12 -78 -23 0 -6 -3 -8 -6 -5 -4 4 -1 15 7 24 7 10 10 15 5 11 -11
-9 -46 9 -46 24 0 6 -8 16 -17 23 -16 12 -16 14 0 38 22 34 21 37 -5 35 -37
-2 -52 6 -71 36 -17 27 -17 29 0 49 13 15 14 18 3 13 -8 -4 -2 4 13 18 16 14
25 30 22 36 -3 5 0 7 8 4 8 -3 27 8 43 25 15 16 31 28 36 25 4 -3 8 -1 8 4 0
22 -15 18 -45 -13 -19 -18 -36 -30 -39 -27 -4 3 -22 -10 -41 -28 -19 -19 -35
-28 -35 -21 0 9 -4 10 -12 4 -12 -10 -53 -14 -44 -5 3 2 -6 16 -19 30 -18 19
-21 28 -12 34 7 4 8 8 4 8 -4 0 -3 9 3 20 6 11 9 20 8 20 -2 0 -18 -4 -36 -9
-19 -6 -32 -6 -32 -1 0 5 -14 17 -31 26 -23 11 -30 21 -26 35 3 13 0 22 -10
26 -8 3 -11 9 -6 12 8 6 36 60 37 73 1 10 17 23 29 23 6 0 14 14 17 30 4 17
13 41 20 55 8 14 13 29 12 33 -1 5 2 6 8 2 5 -3 10 -1 10 5 0 6 4 8 10 5 5 -3
19 -1 31 6 13 6 40 13 62 15 32 3 38 1 33 -11 -3 -9 -2 -14 3 -11 17 11 33
-23 26 -54 -4 -19 -3 -30 4 -30 6 0 11 -10 11 -21 0 -17 3 -19 14 -10 9 8 16
8 20 2 5 -7 15 -7 31 -1 14 5 25 7 25 3 0 -3 9 5 19 19 28 35 38 96 18 104
-13 5 -14 9 -4 24 16 27 -17 64 -51 55 -15 -4 -21 -2 -17 5 3 5 1 10 -6 10 -9
0 -9 3 1 15 16 19 3 55 -21 55 -10 0 -19 5 -19 10 0 6 -14 10 -30 10 -33 0
-47 -19 -34 -47 15 -35 -8 -72 -32 -53 -6 6 -14 7 -17 4 -9 -10 -20 44 -13 63
6 14 4 14 -15 -3 -24 -22 -70 -27 -62 -7 3 7 0 13 -6 13 -8 0 -8 6 1 20 7 10
14 17 16 15 3 -2 13 0 24 6 29 16 20 59 -17 79 -16 8 -34 16 -40 15 -19 -1
-35 -16 -29 -27 5 -7 2 -9 -8 -5 -9 3 -21 0 -28 -6 -10 -9 -11 -9 -6 1 18 31
-40 56 -64 28 -6 -8 -17 -13 -24 -10 -7 3 -25 -6 -41 -20 -22 -19 -28 -33 -30
-70 -1 -39 2 -46 18 -46 13 0 17 -5 13 -15 -4 -13 -2 -13 14 -5 12 6 21 7 25
0 3 -5 15 0 26 11 11 11 27 18 36 15 8 -3 23 -6 33 -6 18 0 33 -31 30 -62 -1
-10 5 -18 12 -18 9 0 9 -3 -2 -10 -8 -5 -10 -10 -5 -10 6 0 12 -11 13 -25 1
-14 -3 -25 -8 -25 -6 0 -10 -9 -10 -19 0 -11 -13 -29 -29 -40 -19 -13 -28 -27
-25 -39 3 -9 -6 -29 -20 -43 -14 -15 -22 -30 -19 -33 4 -3 -1 -6 -11 -6 -9 0
-19 -6 -22 -14 -3 -7 -16 -13 -29 -13 -14 0 -23 3 -20 6 2 4 -5 12 -16 19 -15
10 -19 10 -19 0 0 -8 -3 -9 -11 -1 -10 10 -16 32 -18 61 -1 17 -41 -8 -41 -25
0 -15 -36 -17 -45 -3 -3 6 -16 10 -28 11 -12 0 -16 3 -9 6 10 4 9 8 -5 19 -10
7 -13 14 -8 14 6 0 11 33 12 76 1 76 -4 91 -13 38 -10 -56 -25 -103 -34 -109
-6 -4 -7 -11 -4 -17 5 -7 1 -9 -9 -5 -9 3 -16 3 -16 -1 3 -20 -3 -20 -21 -2
-11 11 -26 17 -34 14 -10 -4 -17 3 -22 21 l-7 28 -17 -23 c-13 -17 -24 -22
-44 -18 -14 3 -26 2 -26 -2 0 -4 -11 -5 -23 -3 -18 4 -28 18 -44 63 -14 41
-17 60 -9 63 7 3 4 12 -7 25 -24 26 -30 107 -11 127 8 7 14 18 14 23 0 5 11
15 25 22 13 7 22 16 20 20 -11 17 60 0 74 -18 26 -32 58 -45 65 -26 3 8 10 13
14 10 11 -6 32 37 32 63 0 31 -31 81 -50 81 -10 0 -20 9 -23 20 -6 25 -57 29
-57 4 0 -11 -5 -14 -16 -10 -9 3 -18 6 -20 6 -3 0 -2 5 1 10 8 13 -13 40 -29
39 -6 0 -25 -5 -43 -10z m191 -804 c8 -8 19 -15 25 -15 6 0 11 -4 11 -10 0
-10 39 -49 85 -85 14 -11 44 -38 68 -60 24 -22 55 -46 70 -52 15 -7 27 -17 27
-23 0 -5 8 -10 19 -10 10 0 24 -7 31 -15 7 -8 17 -15 23 -15 15 0 97 -91 97
-107 0 -7 7 -13 16 -13 9 0 18 -9 21 -20 3 -11 12 -20 19 -20 8 0 17 -7 20
-15 4 -8 12 -15 20 -15 13 0 64 -60 64 -76 0 -23 -121 -91 -140 -79 -6 4 -10
1 -10 -5 0 -6 -8 -14 -17 -17 -10 -4 -29 -15 -42 -25 -13 -10 -27 -15 -32 -12
-5 3 -9 1 -9 -5 0 -17 -124 -66 -140 -56 -5 3 -14 -1 -22 -8 -7 -8 -23 -13
-36 -12 -12 1 -27 -4 -33 -12 -6 -7 -20 -13 -31 -13 -11 0 -27 -7 -35 -16 -9
-8 -24 -13 -34 -11 -10 3 -20 -1 -23 -9 -3 -8 -16 -14 -30 -14 -13 0 -26 -7
-30 -15 -3 -8 -12 -15 -19 -15 -8 0 -20 -7 -27 -15 -7 -8 -16 -13 -20 -10 -5
3 -11 1 -15 -4 -17 -29 -155 49 -155 88 0 6 -7 14 -15 17 -8 4 -15 10 -15 16
0 5 -13 20 -29 34 -28 24 -61 81 -69 119 -7 36 -6 119 2 165 4 25 9 56 10 70
2 14 4 27 5 30 1 3 4 24 6 47 2 23 10 56 18 75 9 18 18 42 21 54 8 26 64 84
82 84 8 0 14 3 14 8 0 4 17 16 38 27 20 11 51 29 67 41 58 42 123 54 149 29z
m-480 -471 c3 -8 2 -12 -4 -9 -6 3 -10 10 -10 16 0 14 7 11 14 -7z"/>
<path d="M4790 5496 c-6 -8 -18 -12 -26 -9 -8 3 -14 1 -14 -4 0 -17 12 -22 30
-13 15 8 17 6 12 -12 -3 -13 -7 -17 -10 -10 -3 10 -7 10 -20 0 -9 -7 -13 -8
-9 -2 4 7 0 17 -8 24 -13 11 -14 10 -10 -2 4 -9 -4 -26 -19 -41 -14 -15 -26
-30 -26 -34 0 -5 -14 -14 -32 -22 -28 -12 -35 -12 -58 1 -25 14 -28 14 -38 -3
-14 -22 -15 -32 -3 -25 5 3 11 -1 14 -9 4 -9 1 -12 -9 -8 -10 3 -12 0 -8 -10
3 -9 -4 -21 -18 -31 l-22 -16 24 -1 c16 0 19 -3 10 -6 -8 -3 -18 -11 -22 -17
-10 -14 -10 -69 0 -63 16 11 4 -80 -16 -113 -27 -47 -37 -97 -22 -115 9 -11 9
-23 2 -45 -13 -35 6 -61 39 -55 32 6 79 -33 79 -67 0 -15 5 -28 11 -28 7 0 9
-11 6 -30 -6 -26 -3 -30 14 -30 12 0 23 -8 26 -20 8 -30 33 -25 33 8 0 19 10
35 35 55 20 16 33 32 30 37 -9 14 26 21 72 14 40 -6 43 -5 53 22 14 37 50 75
63 67 6 -3 7 -1 3 5 -11 19 39 25 71 9 16 -9 41 -13 57 -10 20 4 31 1 38 -11
14 -25 26 -19 33 17 9 40 22 57 45 57 9 0 25 9 35 20 12 14 30 20 54 19 47 -1
74 5 79 19 2 6 -9 10 -27 10 -43 -1 -87 20 -99 48 -7 13 -18 24 -27 24 -8 0
-16 6 -17 13 0 6 -2 17 -2 22 -1 6 -5 16 -10 24 -6 10 -5 12 2 7 8 -5 12 0 12
13 0 23 -19 28 -37 10 -9 -9 -20 -9 -40 -1 -15 6 -45 10 -65 10 -41 -1 -68 15
-68 42 0 10 -7 23 -15 30 -8 7 -15 21 -15 32 0 18 -2 19 -17 7 -16 -12 -15
-11 0 8 19 22 19 22 -20 29 -55 10 -73 22 -73 48 0 13 -9 31 -20 41 -16 14
-19 26 -14 52 7 35 -5 43 -26 19z m-66 -131 c3 -9 0 -15 -9 -15 -9 0 -12 6 -9
15 4 8 7 15 9 15 2 0 5 -7 9 -15z m101 -4 c-3 -6 3 -14 12 -20 10 -6 14 -10 8
-11 -19 0 -38 18 -31 29 4 6 9 11 12 11 3 0 3 -4 -1 -9z m-230 -11 c3 -5 1
-10 -4 -10 -6 0 -11 5 -11 10 0 6 2 10 4 10 3 0 8 -4 11 -10z m45 -14 c-7 -7
-13 -7 -20 0 -6 6 -3 10 10 10 13 0 16 -4 10 -10z m-55 -35 c3 -5 2 -12 -3
-15 -5 -3 -9 1 -9 9 0 17 3 19 12 6z m368 -54 c-3 -4 -11 -3 -19 4 -7 6 -11
15 -8 20 3 5 11 3 18 -4 8 -6 12 -16 9 -20z m49 -97 c5 0 19 5 30 11 15 8 23
8 32 -2 8 -9 8 -10 -2 -4 -9 4 -26 -1 -44 -15 -16 -12 -31 -20 -33 -18 -2 2
-6 19 -9 38 -5 31 -4 32 6 13 6 -13 15 -23 20 -23z m108 8 c0 -5 6 -6 13 -2 9
5 9 4 -1 -7 -10 -11 -15 -11 -28 2 -13 14 -13 16 1 16 8 0 15 -4 15 -9z m56
-31 c1 -15 -2 -27 -8 -27 -6 0 -8 11 -6 25 3 13 1 26 -4 29 -5 2 -3 3 3 2 7
-1 13 -14 15 -29z m40 -61 c10 -2 19 -8 19 -15 0 -7 11 -19 25 -26 l25 -13
-29 -12 c-16 -6 -31 -8 -34 -5 -4 3 4 8 15 11 22 6 21 7 -6 30 -16 13 -34 24
-40 24 -6 0 -11 8 -11 18 0 13 2 14 9 4 4 -7 17 -15 27 -16z m101 -62 c-3 -3
-12 -4 -19 -1 -8 3 -5 6 6 6 11 1 17 -2 13 -5z m-123 -23 c3 -5 -3 -11 -13
-14 -14 -3 -18 -1 -14 9 6 16 19 18 27 5z m-186 -31 c17 -16 27 -30 22 -30 -4
0 -13 7 -20 15 -15 18 -50 20 -50 3 0 -6 -3 -9 -6 -6 -5 6 13 48 21 48 2 0 17
-13 33 -30z m98 -32 c5 -7 2 -9 -8 -5 -9 3 -21 0 -27 -6 -9 -9 -11 -8 -6 6 8
19 30 23 41 5z m48 -30 c-8 -12 -32 16 -27 30 4 9 9 8 18 -5 7 -10 11 -21 9
-25z m-610 -6 c3 -5 -1 -9 -9 -9 -8 0 -15 4 -15 9 0 4 4 8 9 8 6 0 12 -4 15
-8z m41 -2 c3 -6 -1 -7 -9 -4 -18 7 -21 14 -7 14 6 0 13 -4 16 -10z m318 -7
c-7 -2 -13 -13 -13 -24 0 -10 -4 -19 -9 -19 -12 0 -9 33 4 42 6 4 15 7 20 7 6
0 4 -3 -2 -6z m-279 -21 c3 -5 -1 -9 -9 -9 -8 0 -12 4 -9 9 3 4 7 8 9 8 2 0 6
-4 9 -8z m36 -16 c0 -3 -4 -8 -10 -11 -5 -3 -10 -1 -10 4 0 6 5 11 10 11 6 0
10 -2 10 -4z m170 0 c0 -3 -4 -8 -10 -11 -5 -3 -10 -1 -10 4 0 6 5 11 10 11 6
0 10 -2 10 -4z m-70 -16 c0 -5 -4 -10 -10 -10 -5 0 -10 5 -10 10 0 6 5 10 10
10 6 0 10 -4 10 -10z m87 -12 c-3 -8 -6 -5 -6 6 -1 11 2 17 5 13 3 -3 4 -12 1
-19z m-187 -40 c0 -6 -6 -5 -15 2 -8 7 -15 14 -15 16 0 2 7 1 15 -2 8 -4 15
-11 15 -16z m51 -24 c-19 -13 -22 -23 -17 -48 4 -22 3 -27 -4 -16 -21 32 0 79
35 80 5 0 -1 -7 -14 -16z"/>
<path d="M5365 4990 c-4 -6 -11 -7 -17 -4 -6 4 -8 2 -5 -4 8 -12 47 -4 47 9 0
12 -17 11 -25 -1z"/>
<path d="M8677 6217 c-18 -22 -8 -47 20 -47 11 0 13 7 8 30 -5 24 -4 29 8 24
8 -3 18 -1 21 4 12 19 -41 9 -57 -11z"/>
<path d="M6397 6194 c-3 -5 1 -15 9 -22 16 -14 18 -5 5 17 -5 7 -11 9 -14 5z"/>
<path d="M8760 6120 c0 -5 5 -10 10 -10 6 0 10 5 10 10 0 6 -4 10 -10 10 -5 0
-10 -4 -10 -10z"/>
<path d="M8798 6063 c7 -3 16 -2 19 1 4 3 -2 6 -13 5 -11 0 -14 -3 -6 -6z"/>
<path d="M4990 6050 c0 -5 5 -10 10 -10 6 0 10 5 10 10 0 6 -4 10 -10 10 -5 0
-10 -4 -10 -10z"/>
<path d="M8717 6043 c-4 -3 -7 -12 -7 -20 0 -17 26 -17 33 1 8 21 -11 35 -26
19z"/>
<path d="M6186 6032 c-3 -6 -1 -14 5 -17 14 -9 20 -2 10 14 -6 8 -11 9 -15 3z"/>
<path d="M4987 6010 c-3 -11 -1 -20 4 -20 5 0 9 9 9 20 0 11 -2 20 -4 20 -2 0
-6 -9 -9 -20z"/>
<path d="M8490 5990 c0 -5 -6 -10 -14 -10 -27 0 -28 -33 -2 -57 30 -28 47 -29
69 -5 18 20 22 42 8 42 -5 0 -11 9 -14 20 -5 20 -47 29 -47 10z"/>
<path d="M8765 5950 c-3 -5 -1 -10 4 -10 6 0 11 5 11 10 0 6 -2 10 -4 10 -3 0
-8 -4 -11 -10z"/>
<path d="M8702 5893 c4 -24 23 -27 25 -3 1 12 -4 20 -13 20 -9 0 -14 -7 -12
-17z"/>
<path d="M4245 5880 c3 -5 8 -10 11 -10 2 0 4 5 4 10 0 6 -5 10 -11 10 -5 0
-7 -4 -4 -10z"/>
<path d="M4277 5844 c6 -15 23 -19 23 -5 0 5 -7 11 -14 14 -10 4 -13 1 -9 -9z"/>
<path d="M7959 5781 c-24 -20 -24 -20 -4 -36 20 -16 20 -16 -3 -12 -12 3 -20
1 -16 -4 3 -5 0 -9 -5 -9 -6 0 -11 5 -11 10 0 6 -7 10 -15 10 -18 0 -37 -43
-29 -65 7 -17 34 -21 34 -5 0 13 27 13 35 1 3 -5 -2 -16 -10 -24 -8 -9 -15
-22 -15 -30 0 -22 -26 -41 -36 -26 -5 8 -3 9 7 4 12 -8 12 -6 0 8 -16 20 -31
13 -31 -14 0 -13 4 -18 12 -13 7 5 9 1 6 -13 -6 -24 22 -46 43 -32 12 8 11 11
-4 20 -14 8 -16 14 -6 25 26 32 77 -2 71 -48 -4 -23 15 -32 32 -15 12 12 10
18 -14 40 -38 37 -49 74 -34 117 7 19 13 28 14 20 0 -11 2 -12 8 -2 6 9 16 4
35 -18 15 -16 27 -35 27 -42 0 -6 7 -3 15 8 8 10 15 15 15 9 0 -5 8 2 18 18
20 30 18 87 -3 87 -7 0 -15 9 -18 20 -5 19 -47 30 -47 12 0 -5 -7 -9 -15 -9
-8 0 -15 6 -15 14 0 18 -14 16 -41 -6z"/>
<path d="M8580 5730 c0 -21 15 -27 25 -10 3 5 13 6 23 3 15 -6 15 -5 3 10 -19
24 -51 22 -51 -3z"/>
<path d="M8393 5674 c-9 -23 15 -53 37 -47 31 8 24 58 -8 59 -13 1 -26 -4 -29
-12z"/>
<path d="M5690 5639 c0 -5 5 -7 10 -4 6 3 10 8 10 11 0 2 -4 4 -10 4 -5 0 -10
-5 -10 -11z"/>
<path d="M8550 5630 c0 -5 4 -10 9 -10 6 0 13 5 16 10 3 6 -1 10 -9 10 -9 0
-16 -4 -16 -10z"/>
<path d="M8512 5558 c2 -6 10 -13 16 -14 7 -1 8 0 2 3 -5 2 -8 9 -4 14 3 5 0
9 -6 9 -7 0 -10 -5 -8 -12z"/>
<path d="M8250 5515 c0 -18 5 -25 19 -25 23 0 34 23 18 39 -19 19 -37 12 -37
-14z"/>
<path d="M8395 5510 c-4 -7 -3 -15 2 -19 6 -3 12 -13 15 -20 4 -13 5 -12 10 1
9 22 -16 56 -27 38z"/>
<path d="M8107 5494 c-14 -14 -7 -35 11 -32 9 2 17 10 17 17 0 16 -18 25 -28
15z"/>
<path d="M7983 5473 c-10 -16 -13 -16 -22 -3 -5 8 -12 12 -15 9 -8 -8 5 -49
16 -49 5 0 6 5 2 11 -4 7 -1 10 7 7 8 -3 13 -11 11 -17 -4 -17 50 -10 56 7 3
9 -3 13 -19 10 -20 -2 -24 1 -22 20 3 27 1 27 -14 5z"/>
<path d="M8340 5450 c0 -5 5 -10 10 -10 6 0 10 5 10 10 0 6 -4 10 -10 10 -5 0
-10 -4 -10 -10z"/>
<path d="M2557 5425 c3 -8 9 -12 14 -9 12 7 11 11 -5 17 -10 4 -13 1 -9 -8z"/>
<path d="M8193 5416 c3 -8 -1 -17 -9 -20 -16 -6 -19 -26 -3 -26 5 0 7 5 4 10
-3 6 0 10 8 10 16 0 30 24 20 34 -12 12 -25 6 -20 -8z"/>
<path d="M8290 5420 c0 -5 9 -14 20 -20 19 -10 20 -10 8 9 -13 22 -28 28 -28
11z"/>
<path d="M2540 5402 c0 -15 28 -23 36 -9 4 7 4 9 -1 5 -4 -4 -14 -3 -22 3 -8
7 -13 8 -13 1z"/>
<path d="M8095 5400 c-4 -6 2 -13 12 -17 10 -3 21 -8 26 -10 13 -8 7 2 -13 19
-11 10 -22 13 -25 8z"/>
<path d="M8140 5400 c0 -5 5 -10 10 -10 6 0 10 5 10 10 0 6 -4 10 -10 10 -5 0
-10 -4 -10 -10z"/>
<path d="M3040 5349 c0 -5 5 -7 10 -4 6 3 10 8 10 11 0 2 -4 4 -10 4 -5 0 -10
-5 -10 -11z"/>
<path d="M3865 5220 c-3 -5 -1 -10 4 -10 6 0 11 5 11 10 0 6 -2 10 -4 10 -3 0
-8 -4 -11 -10z"/>
<path d="M6693 4795 c0 -8 6 -15 12 -15 6 0 12 7 12 15 0 8 -6 15 -12 15 -6 0
-12 -7 -12 -15z"/>
<path d="M1640 4751 c0 -12 5 -21 10 -21 6 0 10 6 10 14 0 8 -4 18 -10 21 -5
3 -10 -3 -10 -14z"/>
<path d="M1540 4730 c0 -11 5 -20 11 -20 6 0 9 6 6 14 -4 9 1 17 11 19 12 3
11 5 -5 6 -17 1 -23 -5 -23 -19z"/>
<path d="M7183 4735 c0 -7 6 -11 14 -8 7 3 13 6 13 8 0 2 -6 5 -13 8 -8 3 -14
-1 -14 -8z"/>
<path d="M1396 4732 c-3 -5 1 -9 9 -9 8 0 12 4 9 9 -3 4 -7 8 -9 8 -2 0 -6 -4
-9 -8z"/>
<path d="M1440 4726 c0 -9 5 -16 10 -16 6 0 10 4 10 9 0 6 -4 13 -10 16 -5 3
-10 -1 -10 -9z"/>
<path d="M1717 4713 c-13 -12 -7 -22 16 -25 15 -2 21 -9 20 -23 -1 -19 -1 -19
11 -2 14 18 42 25 31 7 -3 -5 -1 -10 4 -10 6 0 11 4 11 9 0 18 -12 41 -22 41
-5 0 -6 -4 -3 -10 9 -15 -8 -12 -31 5 -22 16 -28 18 -37 8z"/>
<path d="M7466 4693 c-6 -14 -5 -15 5 -6 7 7 10 15 7 18 -3 3 -9 -2 -12 -12z"/>
<path d="M1390 4690 c0 -5 5 -10 10 -10 6 0 10 5 10 10 0 6 -4 10 -10 10 -5 0
-10 -4 -10 -10z"/>
<path d="M1350 4681 c0 -7 -4 -10 -9 -7 -4 3 -8 -4 -7 -16 1 -21 26 -39 26
-19 0 6 -5 11 -11 11 -8 0 -7 5 1 15 7 9 10 18 6 22 -3 3 -6 1 -6 -6z"/>
<path d="M1615 4670 c-4 -7 -3 -16 3 -22 14 -14 45 -2 40 15 -6 16 -34 21 -43
7z"/>
<path d="M1462 4628 c4 -27 33 -36 42 -13 8 22 -1 35 -25 35 -15 0 -20 -6 -17
-22z"/>
<path d="M1727 4626 c-17 -13 -17 -14 0 -21 40 -18 57 -12 43 16 -12 22 -19
23 -43 5z"/>
<path d="M1820 4604 c0 -4 8 -13 18 -20 15 -12 15 -15 2 -24 -22 -14 -50 -12
-56 5 -4 8 -11 15 -17 15 -5 0 -3 -8 6 -18 21 -24 22 -95 2 -112 -8 -7 -15 -9
-15 -4 0 5 -5 2 -10 -6 -7 -12 -11 -8 -16 18 -4 17 -10 32 -14 32 -5 0 -15 3
-23 6 -9 3 -29 -7 -48 -25 -17 -17 -27 -31 -20 -31 6 0 11 -9 11 -20 0 -11 6
-23 14 -26 8 -3 16 -14 19 -25 6 -21 28 -25 58 -9 14 8 19 8 17 -1 -4 -18 16
-21 37 -6 17 13 17 22 2 56 -1 2 8 5 21 6 12 1 22 -2 22 -7 0 -4 7 -8 15 -8
18 0 34 36 27 62 -5 22 -29 24 -34 2 -3 -13 -6 -13 -22 -1 -19 14 -19 14 2 35
12 12 21 27 20 34 -2 6 5 14 15 16 10 2 16 0 15 -5 -2 -4 2 -10 7 -13 6 -3 12
6 13 19 3 16 0 21 -9 15 -8 -5 -11 -2 -6 8 3 9 0 21 -6 27 -12 12 -47 15 -47
5z"/>
<path d="M1223 4585 c0 -8 4 -15 9 -15 4 0 8 7 8 15 0 8 -4 15 -8 15 -5 0 -9
-7 -9 -15z"/>
<path d="M1175 4510 c-3 -5 1 -10 9 -10 9 0 16 5 16 10 0 6 -4 10 -9 10 -6 0
-13 -4 -16 -10z"/>
<path d="M1318 4509 c-10 -5 -18 -19 -18 -29 0 -15 7 -20 29 -20 32 0 43 16
29 43 -10 19 -16 20 -40 6z"/>
<path d="M4035 4470 c-3 -5 -1 -10 4 -10 6 0 11 5 11 10 0 6 -2 10 -4 10 -3 0
-8 -4 -11 -10z"/>
<path d="M1126 4410 c15 -16 26 -20 37 -13 12 6 13 12 6 23 -8 11 -12 12 -16
3 -3 -10 -10 -10 -26 -2 l-22 11 21 -22z"/>
<path d="M5480 4280 c0 -5 5 -10 10 -10 6 0 10 5 10 10 0 6 -4 10 -10 10 -5 0
-10 -4 -10 -10z"/>
<path d="M1023 4267 c4 -10 7 -23 7 -28 0 -5 5 -9 10 -9 16 0 12 26 -7 41 -15
12 -16 12 -10 -4z"/>
<path d="M1240 4242 c-35 -12 -68 -62 -40 -62 6 0 10 -7 10 -15 0 -22 31 -31
44 -14 6 9 19 18 28 22 9 3 16 12 14 19 -3 21 -41 55 -56 50z"/>
<path d="M4710 4149 c0 -11 4 -18 10 -14 5 3 7 12 3 20 -7 21 -13 19 -13 -6z"/>
<path d="M945 4150 c3 -5 8 -10 11 -10 2 0 4 5 4 10 0 6 -5 10 -11 10 -5 0 -7
-4 -4 -10z"/>
<path d="M1017 4133 c-13 -12 -7 -33 8 -33 8 0 15 9 15 20 0 20 -11 26 -23 13z"/>
<path d="M3536 4112 c-3 -6 -1 -14 5 -17 14 -9 20 -2 10 14 -6 8 -11 9 -15 3z"/>
<path d="M4707 4106 c-4 -10 -5 -21 -2 -24 9 -9 17 6 13 25 -3 17 -4 17 -11
-1z"/>
<path d="M936 4082 c-3 -5 1 -9 9 -9 8 0 12 4 9 9 -3 4 -7 8 -9 8 -2 0 -6 -4
-9 -8z"/>
<path d="M970 4030 c0 -5 5 -10 11 -10 5 0 7 5 4 10 -3 6 -8 10 -11 10 -2 0
-4 -4 -4 -10z"/>
<path d="M1046 3971 c-4 -5 -3 -16 0 -25 3 -9 1 -16 -5 -16 -6 0 -11 -8 -11
-17 0 -14 2 -15 9 -5 4 8 11 13 15 13 18 -3 24 0 30 15 10 27 -24 58 -38 35z"/>
<path d="M3320 3963 c1 -18 18 -35 24 -24 4 6 2 11 -4 11 -6 0 -8 5 -5 10 3 6
1 10 -4 10 -6 0 -11 -3 -11 -7z"/>
<path d="M3075 3820 c3 -5 -4 -10 -15 -10 -16 0 -20 -4 -16 -16 3 -9 6 -18 6
-21 0 -3 7 0 15 7 10 9 15 9 15 1 0 -6 5 -11 11 -11 6 0 9 6 6 14 -3 8 -1 16
5 18 16 6 0 28 -18 28 -8 0 -12 -4 -9 -10z"/>
<path d="M7749 3823 c-1 -4 -1 -11 0 -15 0 -5 -6 -8 -14 -8 -8 0 -15 5 -15 10
0 7 -7 7 -20 0 -11 -6 -18 -15 -14 -21 4 -7 10 -6 19 1 10 8 15 8 20 0 5 -8
11 -7 23 2 12 10 16 10 19 1 6 -18 23 -16 23 2 0 15 -39 42 -41 28z"/>
<path d="M7860 3813 c0 -12 3 -14 8 -7 4 7 16 14 27 17 15 4 14 5 -7 6 -21 1
-28 -4 -28 -16z"/>
<path d="M7900 3789 c0 -5 5 -7 10 -4 6 3 10 8 10 11 0 2 -4 4 -10 4 -5 0 -10
-5 -10 -11z"/>
<path d="M7944 3778 c1 -13 7 -23 12 -23 5 0 10 10 12 23 2 15 -2 22 -12 22
-11 0 -15 -7 -12 -22z"/>
<path d="M1333 3775 c-18 -20 -17 -49 1 -42 10 4 13 1 9 -9 -3 -7 -11 -14 -19
-14 -19 0 -19 -56 0 -63 8 -3 23 -3 34 -1 14 4 21 0 25 -15 5 -21 37 -30 37
-11 0 6 5 9 12 8 18 -4 22 34 4 47 -14 10 -13 13 9 25 29 15 32 36 9 68 -18
27 -32 28 -50 5 -12 -17 -13 -17 -19 0 -8 20 -35 22 -52 2z"/>
<path d="M3102 3770 c-28 -23 -28 -40 -1 -40 11 0 17 5 14 10 -3 6 1 10 9 10
9 0 16 6 16 14 0 24 -13 26 -38 6z"/>
<path d="M7612 3741 c-8 -4 -13 -11 -13 -15 1 -3 -2 -6 -6 -5 -3 0 -10 -7 -16
-16 -12 -22 9 -47 22 -26 5 7 14 10 20 7 6 -4 8 -12 5 -18 -4 -5 -1 -21 7 -34
16 -32 -1 -53 -24 -30 -20 20 -33 20 -41 0 -17 -45 6 -81 32 -48 14 18 14 18
9 -4 -4 -18 -3 -21 8 -12 8 7 15 7 19 1 4 -5 -1 -14 -10 -19 -20 -11 -15 -41
9 -56 14 -8 20 -8 27 4 9 13 12 13 21 -2 12 -22 45 -23 53 -2 3 8 9 13 14 10
31 -19 55 69 27 97 -22 22 -61 22 -74 0 -8 -14 -14 -16 -28 -7 -27 17 -23 64
9 97 25 24 27 41 3 18 -12 -11 -55 4 -55 18 0 6 7 14 16 19 9 5 14 14 10 21
-8 13 -26 14 -44 2z"/>
<path d="M7717 3744 c-15 -15 -7 -45 11 -42 9 2 17 12 17 22 0 20 -16 31 -28
20z"/>
<path d="M7835 3740 c-4 -7 -3 -16 3 -22 14 -14 45 -2 40 15 -6 16 -34 21 -43
7z"/>
<path d="M8040 3740 c0 -5 4 -10 9 -10 6 0 13 5 16 10 3 6 -1 10 -9 10 -9 0
-16 -4 -16 -10z"/>
<path d="M8080 3691 c0 -5 7 -11 14 -14 10 -4 13 -1 9 9 -6 15 -23 19 -23 5z"/>
<path d="M7977 3673 c-15 -14 -7 -43 12 -43 24 0 33 13 25 34 -6 16 -25 21
-37 9z"/>
<path d="M8132 3646 c-12 -6 -21 -15 -19 -19 5 -16 20 -12 35 11 8 12 13 21
11 21 -2 -1 -14 -6 -27 -13z"/>
<path d="M995 3621 c3 -5 -2 -12 -10 -14 -12 -4 -12 -5 1 -3 19 1 32 26 14 26
-6 0 -9 -4 -5 -9z"/>
<path d="M2836 3622 c-3 -5 1 -15 9 -22 16 -14 20 -3 6 19 -5 8 -11 9 -15 3z"/>
<path d="M1016 3597 c-6 -24 7 -43 23 -33 16 10 14 43 -3 49 -9 4 -16 -3 -20
-16z"/>
<path d="M926 3583 c-6 -14 -5 -15 5 -6 7 7 10 15 7 18 -3 3 -9 -2 -12 -12z"/>
<path d="M6010 3560 c-8 -5 -11 -13 -6 -17 5 -4 11 -2 13 5 3 6 10 9 15 6 7
-4 8 -2 4 4 -9 14 -7 14 -26 2z"/>
<path d="M1825 3540 c3 -5 10 -10 16 -10 5 0 9 5 9 10 0 6 -7 10 -16 10 -8 0
-12 -4 -9 -10z"/>
<path d="M8207 3544 c-8 -9 1 -24 14 -24 6 0 7 5 3 12 -5 8 -2 9 10 5 10 -4
15 -3 11 3 -7 11 -28 13 -38 4z"/>
<path d="M899 3538 c-5 -18 -6 -38 -1 -34 7 8 12 36 6 36 -2 0 -4 -1 -5 -2z"/>
<path d="M935 3530 c3 -5 8 -10 11 -10 2 0 4 5 4 10 0 6 -5 10 -11 10 -5 0 -7
-4 -4 -10z"/>
<path d="M1815 3520 c3 -5 11 -10 16 -10 6 0 7 5 4 10 -3 6 -11 10 -16 10 -6
0 -7 -4 -4 -10z"/>
<path d="M8070 3484 c-12 -22 -12 -27 0 -34 25 -16 47 -11 53 12 7 23 -8 48
-28 48 -6 0 -18 -12 -25 -26z"/>
<path d="M966 3463 c-9 -9 -7 -33 3 -33 12 0 22 28 12 34 -5 3 -11 3 -15 -1z"/>
<path d="M2625 3460 c3 -5 8 -10 11 -10 2 0 4 5 4 10 0 6 -5 10 -11 10 -5 0
-7 -4 -4 -10z"/>
<path d="M8230 3455 c0 -8 5 -15 10 -15 6 0 10 7 10 15 0 8 -4 15 -10 15 -5 0
-10 -7 -10 -15z"/>
<path d="M1106 3381 c-17 -19 -17 -21 2 -41 17 -18 24 -20 41 -11 25 14 25 15
5 46 -20 30 -26 31 -48 6z"/>
<path d="M2190 3380 c0 -5 -6 -10 -14 -10 -14 0 -26 -21 -26 -45 0 -8 12 -15
27 -17 34 -4 43 -33 14 -43 -11 -3 -31 -1 -43 6 -21 11 -22 11 -9 -4 11 -14
11 -20 1 -32 -15 -18 -34 -15 -36 6 -1 8 -2 20 -3 27 -2 18 -25 15 -50 -7 -19
-16 -20 -21 -8 -32 11 -11 12 -18 3 -31 -8 -13 -8 -23 0 -36 14 -22 50 -27 57
-8 4 9 1 16 -5 16 -15 0 -1 13 17 16 20 3 45 -28 28 -33 -21 -7 -15 -20 8 -19
28 1 50 -31 29 -44 -9 -5 -19 -5 -27 1 -29 25 -44 -20 -18 -54 9 -13 20 -17
34 -12 15 5 21 2 21 -9 0 -21 53 -21 70 -1 15 18 6 45 -14 45 -7 0 -17 7 -20
15 -8 21 22 31 47 16 17 -11 19 -11 14 3 -8 22 30 43 47 26 8 -9 8 -14 0 -17
-18 -6 -4 -42 18 -49 26 -8 74 42 58 61 -7 9 -5 16 6 25 27 23 0 90 -37 90
-19 0 -35 -33 -24 -50 4 -7 -4 -10 -22 -7 -31 4 -42 29 -23 52 14 17 6 19 -20
5 -20 -11 -43 9 -45 38 -1 13 8 17 39 17 36 0 41 3 44 24 3 16 -5 31 -24 48
-27 23 -29 23 -41 7 -9 -12 -13 -14 -13 -4 0 7 -3 11 -6 7 -4 -3 -13 0 -21 8
-17 17 -33 19 -33 5z"/>
<path d="M8279 3373 c-1 -5 -1 -11 0 -15 2 -12 -13 -10 -26 3 -15 15 -34 3
-26 -16 10 -28 73 -6 73 26 0 11 -19 12 -21 2z"/>
<path d="M6197 3362 c-3 -4 4 -18 15 -32 15 -19 21 -21 28 -10 5 8 3 21 -3 32
-12 18 -32 24 -40 10z"/>
<path d="M960 3340 c-9 -16 -8 -18 5 -14 8 4 15 12 15 20 0 20 -7 17 -20 -6z"/>
<path d="M6154 3327 c-3 -9 3 -25 15 -38 20 -21 21 -21 27 -3 14 44 14 46 0
41 -7 -3 -18 -1 -24 5 -8 8 -13 7 -18 -5z"/>
<path d="M4580 3246 c0 -7 7 -13 15 -13 8 0 15 4 15 8 0 4 -7 9 -15 13 -9 3
-15 0 -15 -8z"/>
<path d="M1020 3219 c0 -5 5 -7 10 -4 6 3 10 1 10 -5 0 -6 5 -8 10 -5 6 4 8
11 5 16 -8 12 -35 11 -35 -2z"/>
<path d="M8087 3206 c-4 -9 -14 -12 -26 -9 -31 8 -27 -34 6 -65 24 -22 28 -23
38 -8 7 9 17 16 23 16 16 0 20 23 8 45 -19 35 -40 44 -49 21z"/>
<path d="M1352 3162 c-25 -17 -29 -50 -7 -58 8 -4 22 -1 29 5 18 15 30 -2 21
-30 -5 -16 -3 -20 6 -16 8 2 13 10 11 17 -2 8 3 10 13 7 10 -4 15 -1 14 11 -1
31 -14 52 -40 66 -21 11 -29 10 -47 -2z"/>
<path d="M8294 3169 c-3 -6 -2 -15 4 -21 6 -6 12 -6 16 1 4 6 4 11 -1 11 -4 0
-1 5 7 10 13 8 13 10 -2 10 -9 0 -20 -5 -24 -11z"/>
<path d="M1130 3156 c0 -19 26 -27 39 -12 13 15 4 26 -21 26 -10 0 -18 -6 -18
-14z"/>
<path d="M1050 3150 c0 -5 5 -10 11 -10 5 0 7 5 4 10 -3 6 -8 10 -11 10 -2 0
-4 -4 -4 -10z"/>
<path d="M6371 3091 c-9 -6 -10 -11 -2 -15 6 -4 11 -2 11 4 0 6 5 8 10 5 6 -3
10 -1 10 4 0 13 -10 14 -29 2z"/>
<path d="M8340 3089 c0 -5 5 -7 10 -4 6 3 10 8 10 11 0 2 -4 4 -10 4 -5 0 -10
-5 -10 -11z"/>
<path d="M1145 3060 c-3 -5 -1 -10 4 -10 6 0 11 5 11 10 0 6 -2 10 -4 10 -3 0
-8 -4 -11 -10z"/>
<path d="M1215 3060 c-3 -5 1 -10 9 -10 9 0 16 5 16 10 0 6 -4 10 -9 10 -6 0
-13 -4 -16 -10z"/>
<path d="M1405 3049 c-4 -6 -5 -13 -2 -16 7 -7 27 6 27 18 0 12 -17 12 -25 -2z"/>
<path d="M1360 3034 c0 -8 5 -12 10 -9 6 3 10 10 10 16 0 5 -4 9 -10 9 -5 0
-10 -7 -10 -16z"/>
<path d="M8267 3035 c-8 -18 11 -31 25 -17 11 11 3 32 -12 32 -4 0 -10 -7 -13
-15z"/>
<path d="M1295 3030 c-3 -5 1 -10 10 -10 9 0 13 5 10 10 -3 6 -8 10 -10 10 -2
0 -7 -4 -10 -10z"/>
<path d="M1340 2998 c0 -11 28 -10 35 1 3 6 -4 9 -15 8 -11 -1 -20 -5 -20 -9z"/>
<path d="M8340 2971 c0 -5 5 -13 10 -16 6 -3 10 -2 10 4 0 5 -4 13 -10 16 -5
3 -10 2 -10 -4z"/>
<path d="M8290 2924 c0 -8 5 -12 10 -9 6 4 8 11 5 16 -9 14 -15 11 -15 -7z"/>
<path d="M8180 2895 c-13 -16 -5 -65 10 -65 6 0 10 4 10 10 0 5 6 8 13 6 6 -1
9 -1 5 1 -5 3 -5 15 -2 27 7 28 -19 42 -36 21z"/>
<path d="M6535 2880 c-3 -6 1 -7 9 -4 18 7 21 14 7 14 -6 0 -13 -4 -16 -10z"/>
<path d="M8300 2865 c-7 -9 -8 -15 -2 -15 5 0 12 7 16 15 3 8 4 15 2 15 -2 0
-9 -7 -16 -15z"/>
<path d="M7748 2811 c-21 -21 -24 -51 -5 -51 8 0 14 -7 14 -15 0 -8 -6 -15
-14 -15 -19 0 -16 -34 5 -53 24 -22 52 -22 52 1 0 11 7 18 19 18 11 0 17 -4
14 -9 -11 -18 21 -26 39 -10 19 17 24 43 10 43 -5 0 -9 7 -9 15 0 8 4 12 9 9
11 -7 10 23 -2 47 -12 21 -40 26 -40 6 0 -7 -9 -13 -20 -13 -11 0 -19 5 -19
11 5 39 -23 47 -53 16z"/>
<path d="M4495 2739 c-9 -14 -2 -20 14 -10 8 6 9 11 3 15 -6 3 -14 1 -17 -5z"/>
<path d="M7313 2710 c1 -11 7 -20 14 -20 7 0 13 9 13 20 0 11 -6 20 -14 20 -9
0 -14 -9 -13 -20z"/>
<path d="M2380 2683 c0 -7 9 -13 20 -13 11 0 20 6 20 14 0 9 -9 14 -20 13 -11
-1 -20 -7 -20 -14z"/>
<path d="M6804 2675 c-21 -21 -23 -29 -14 -40 7 -8 20 -15 30 -15 26 0 31 -24
8 -39 -16 -10 -23 -10 -36 1 -14 11 -14 11 -5 -7 8 -13 8 -26 2 -37 -11 -21
-38 -24 -41 -5 0 6 -2 17 -3 22 -2 6 -3 16 -4 23 -2 19 -45 14 -64 -8 -20 -23
-22 -56 -5 -66 7 -5 8 -2 3 7 -5 8 -4 10 0 6 14 -12 14 -36 0 -31 -7 3 -15 -4
-18 -15 -3 -12 1 -22 9 -25 8 -3 14 -12 14 -20 0 -26 58 -31 61 -5 1 5 3 14 4
19 1 6 3 17 4 25 2 22 39 18 51 -6 9 -17 8 -25 -7 -41 -18 -21 -18 -21 5 -9
30 16 43 6 40 -29 -2 -21 -5 -26 -14 -19 -15 12 -44 1 -44 -16 0 -33 60 -60
76 -34 5 8 9 8 14 -1 4 -7 16 -9 28 -6 37 12 39 63 2 53 -12 -3 -20 2 -23 14
-5 20 15 31 41 22 13 -5 14 -3 5 7 -15 16 -6 40 16 40 10 0 17 -9 18 -21 3
-38 20 -45 48 -19 17 16 22 27 15 34 -15 15 -12 26 6 26 13 0 15 6 9 28 -3 15
-12 33 -20 41 -17 18 -45 7 -45 -18 0 -10 -7 -22 -16 -25 -22 -8 -22 -8 -34
15 -9 15 -8 24 2 37 8 9 8 13 1 9 -15 -9 -45 21 -41 42 2 11 14 16 38 16 29 0
36 4 38 23 2 13 -3 24 -12 28 -9 3 -14 10 -11 14 9 14 -27 21 -42 8 -12 -10
-17 -9 -24 5 -14 24 -36 21 -65 -8z"/>
<path d="M8116 2541 c-10 -11 -16 -27 -12 -36 8 -21 31 -14 30 9 -1 9 4 16 12
16 8 0 14 5 14 11 0 5 -4 8 -9 5 -5 -4 -11 -1 -13 5 -2 6 -12 2 -22 -10z"/>
<path d="M1758 2503 c-20 -5 -25 -24 -5 -20 6 1 11 -4 10 -10 -2 -8 7 -13 20
-13 35 0 39 -10 14 -31 l-22 -19 23 -20 c19 -16 27 -17 42 -8 30 19 34 92 4
89 -5 -1 -9 5 -9 11 0 7 -9 14 -19 16 -14 3 -17 0 -13 -12 4 -9 3 -16 -2 -16
-13 0 -32 26 -24 33 3 4 4 6 2 6 -2 -1 -12 -3 -21 -6z"/>
<path d="M8211 2484 c0 -11 3 -14 6 -6 3 7 2 16 -1 19 -3 4 -6 -2 -5 -13z"/>
<path d="M1685 2459 c-11 -16 -1 -19 13 -3 7 8 8 14 3 14 -5 0 -13 -5 -16 -11z"/>
<path d="M1720 2450 c0 -5 5 -10 10 -10 6 0 10 5 10 10 0 6 -4 10 -10 10 -5 0
-10 -4 -10 -10z"/>
<path d="M4450 2449 c0 -5 5 -7 10 -4 6 3 10 8 10 11 0 2 -4 4 -10 4 -5 0 -10
-5 -10 -11z"/>
<path d="M8180 2440 c0 -5 5 -10 11 -10 5 0 7 5 4 10 -3 6 -8 10 -11 10 -2 0
-4 -4 -4 -10z"/>
<path d="M1680 2400 c0 -5 7 -10 15 -10 8 0 15 5 15 10 0 6 -7 10 -15 10 -8 0
-15 -4 -15 -10z"/>
<path d="M1642 2393 c-6 -2 -10 -9 -6 -14 8 -14 21 -11 21 6 0 8 -1 15 -1 14
-1 0 -7 -3 -14 -6z"/>
<path d="M8120 2376 c0 -9 7 -16 16 -16 17 0 14 22 -4 28 -7 2 -12 -3 -12 -12z"/>
<path d="M3255 2360 c-3 -5 -4 -19 0 -29 7 -23 -12 -38 -28 -22 -16 16 -36 14
-54 -5 -13 -13 -14 -20 -5 -35 16 -25 15 -26 -7 -32 -20 -5 -22 -21 -6 -47 9
-14 11 -19 14 -39 0 -5 14 -14 29 -20 31 -13 74 -3 88 21 10 16 13 48 3 43 -4
-3 -12 9 -18 25 -6 20 -7 30 0 30 6 0 7 5 4 11 -5 7 4 9 29 5 42 -7 93 -48
109 -89 11 -25 14 -27 31 -14 22 16 14 37 -14 37 -11 0 -27 12 -36 26 -16 24
-16 26 3 46 19 19 50 17 38 -2 -3 -5 -1 -11 4 -15 6 -3 15 3 20 13 11 22 -7
55 -40 72 -28 15 -44 2 -24 -20 13 -15 13 -19 1 -29 -11 -9 -15 -8 -20 6 -5
13 -9 14 -15 5 -11 -19 -48 -23 -61 -6 -10 11 -7 16 14 24 43 16 32 38 -24 46
-15 3 -31 0 -35 -6z"/>
<path d="M7932 2358 c-17 -17 -15 -32 8 -53 17 -16 21 -16 35 -2 10 11 13 25
9 42 -7 27 -32 33 -52 13z"/>
<path d="M1675 2319 c-4 -6 -5 -13 -2 -16 7 -7 27 6 27 18 0 12 -17 12 -25 -2z"/>
<path d="M8090 2266 c0 -15 24 -28 34 -19 5 6 -18 33 -28 33 -3 0 -6 -6 -6
-14z"/>
<path d="M2315 2245 c-30 -31 -31 -40 -7 -54 13 -8 14 -10 2 -11 -13 0 -13 -1
0 -10 13 -8 12 -10 -2 -10 -24 0 -23 -23 1 -44 18 -16 47 -14 37 3 -3 3 4 7
14 7 10 0 16 -6 13 -12 -6 -17 12 -26 41 -18 30 7 43 34 23 49 -16 12 -2 30
23 30 8 0 16 10 18 23 2 12 -1 22 -7 22 -6 0 -11 6 -11 14 0 16 -27 29 -41 20
-5 -3 -9 -13 -10 -22 0 -10 -3 -12 -5 -5 -3 7 -13 9 -22 6 -9 -3 -14 -3 -10 2
8 9 -9 35 -23 35 -4 0 -20 -11 -34 -25z"/>
<path d="M7610 2214 c-6 -6 -7 -14 -3 -17 3 -4 -1 -7 -10 -7 -11 0 -17 -8 -16
-22 0 -13 3 -17 6 -10 8 20 22 14 16 -7 -3 -11 -11 -21 -19 -23 -9 -2 -11 -7
-4 -18 8 -13 11 -13 19 -1 5 7 13 11 18 8 6 -4 8 3 6 16 -3 14 2 29 12 37 14
11 16 11 13 -1 -2 -7 6 -15 19 -17 28 -4 42 34 19 56 -18 18 -63 22 -76 6z"/>
<path d="M1722 2203 c5 -26 38 -29 38 -4 0 15 -6 21 -21 21 -14 0 -19 -5 -17
-17z"/>
<path d="M3505 2200 c5 -15 1 -22 -17 -29 -23 -10 -23 -10 -1 -10 24 -1 43
-23 25 -29 -14 -4 -16 -32 -3 -32 12 0 25 19 28 43 2 10 -1 15 -7 12 -5 -3
-10 3 -10 15 0 12 5 18 10 15 14 -9 13 8 -2 23 -18 18 -30 14 -23 -8z"/>
<path d="M7990 2170 c0 -5 7 -10 16 -10 8 0 12 5 9 10 -3 6 -10 10 -16 10 -5
0 -9 -4 -9 -10z"/>
<path d="M1645 2159 c-4 -6 -5 -12 -2 -15 2 -3 7 2 10 11 7 17 1 20 -8 4z"/>
<path d="M7857 2154 c-9 -10 4 -34 19 -34 8 0 14 9 14 20 0 19 -19 27 -33 14z"/>
<path d="M1899 2107 c-14 -13 -18 -22 -11 -25 7 -2 12 -10 12 -17 0 -28 54
-25 65 3 3 9 1 18 -4 20 -6 2 -11 10 -11 17 0 23 -27 24 -51 2z"/>
<path d="M7955 2110 c-3 -5 -1 -10 4 -10 6 0 11 5 11 10 0 6 -2 10 -4 10 -3 0
-8 -4 -11 -10z"/>
<path d="M7625 2090 c3 -5 8 -10 11 -10 2 0 4 5 4 10 0 6 -5 10 -11 10 -5 0
-7 -4 -4 -10z"/>
<path d="M7766 2083 c-11 -11 -6 -23 9 -23 8 0 15 4 15 9 0 13 -16 22 -24 14z"/>
<path d="M1734 2061 c0 -11 5 -17 13 -14 7 3 13 11 13 19 0 8 -6 14 -13 14 -7
0 -13 -8 -13 -19z"/>
<path d="M6526 2071 c-5 -8 -3 -17 5 -22 21 -13 29 -11 29 7 0 8 -4 13 -9 10
-5 -4 -11 -1 -13 6 -3 9 -6 9 -12 -1z"/>
<path d="M7680 2066 c0 -8 5 -18 10 -21 6 -3 10 3 10 14 0 12 -4 21 -10 21 -5
0 -10 -6 -10 -14z"/>
<path d="M3416 2048 c-6 -24 9 -39 31 -31 19 7 16 31 -6 42 -15 9 -20 7 -25
-11z"/>
<path d="M7610 2059 c0 -5 5 -7 10 -4 6 3 10 8 10 11 0 2 -4 4 -10 4 -5 0 -10
-5 -10 -11z"/>
<path d="M2620 2049 c0 -5 5 -7 10 -4 6 3 10 8 10 11 0 2 -4 4 -10 4 -5 0 -10
-5 -10 -11z"/>
<path d="M7840 2050 c0 -5 5 -10 11 -10 5 0 7 5 4 10 -3 6 -8 10 -11 10 -2 0
-4 -4 -4 -10z"/>
<path d="M3510 2026 c0 -2 7 -6 15 -10 8 -3 15 -1 15 4 0 6 -7 10 -15 10 -8 0
-15 -2 -15 -4z"/>
<path d="M5440 2020 c0 -5 -6 -7 -13 -4 -16 6 -41 -42 -27 -51 15 -9 31 5 23
18 -4 7 4 5 17 -4 14 -9 25 -21 25 -27 0 -19 14 -25 62 -26 33 -1 47 -5 46
-13 -2 -7 3 -13 10 -13 6 0 4 -5 -5 -11 -10 -5 -18 -16 -18 -24 0 -9 -6 -12
-16 -8 -25 9 -14 -58 13 -80 28 -23 68 -14 107 25 26 27 28 31 15 54 -11 21
-11 27 1 34 11 7 12 14 2 34 -12 26 -36 34 -47 16 -3 -5 -11 -10 -16 -10 -6 0
-7 5 -3 11 3 6 0 15 -7 20 -12 8 -11 11 3 19 23 14 13 37 -20 43 -48 9 -73
-20 -34 -42 10 -6 12 -11 4 -11 -8 0 -10 -5 -6 -12 5 -8 2 -9 -9 -5 -10 4 -17
1 -17 -6 0 -6 -7 -2 -15 10 -9 12 -22 20 -29 17 -7 -3 -16 2 -20 11 -3 9 0 18
9 21 24 9 17 24 -10 24 -14 0 -25 -4 -25 -10z"/>
<path d="M7676 2018 c3 -5 10 -6 15 -3 13 9 11 12 -6 12 -8 0 -12 -4 -9 -9z"/>
<path d="M3490 1980 c0 -5 5 -10 10 -10 6 0 10 5 10 10 0 6 -4 10 -10 10 -5 0
-10 -4 -10 -10z"/>
<path d="M1825 1940 c3 -5 10 -10 16 -10 5 0 9 5 9 10 0 6 -7 10 -16 10 -8 0
-12 -4 -9 -10z"/>
<path d="M3473 1943 c-27 -5 -30 -21 -7 -30 10 -4 22 0 29 10 7 9 15 14 18 10
4 -3 7 -1 7 5 0 12 -7 13 -47 5z"/>
<path d="M5305 1930 c-10 -11 -13 -20 -7 -20 7 0 12 -7 12 -15 0 -9 -6 -12
-16 -8 -12 4 -15 0 -12 -23 2 -18 10 -30 21 -32 20 -4 24 23 5 31 -8 4 -5 8 9
12 18 6 20 11 13 31 -8 19 -6 22 7 17 10 -4 14 -2 11 7 -7 22 -23 22 -43 0z"/>
<path d="M5452 1918 c-7 -7 -12 -16 -12 -21 0 -5 7 -1 16 8 9 9 14 18 12 20
-2 3 -10 -1 -16 -7z"/>
<path d="M3320 1895 c0 -22 4 -26 23 -23 14 2 22 10 22 23 0 13 -8 21 -22 23
-19 3 -23 -1 -23 -23z"/>
<path d="M1925 1899 c-10 -15 1 -23 20 -15 9 3 13 10 10 16 -8 13 -22 13 -30
-1z"/>
<path d="M2070 1879 c0 -16 5 -20 20 -16 23 6 27 -12 8 -33 -11 -12 -10 -12 3
-2 9 6 19 9 23 5 4 -4 4 0 0 10 -4 11 -1 17 7 17 12 0 12 2 1 9 -8 4 -13 12
-13 17 1 5 -10 10 -24 12 -20 3 -25 -1 -25 -19z"/>
<path d="M5362 1893 c-8 -3 -5 -10 10 -23 25 -20 33 -18 48 11 9 17 7 19 -17
18 -15 0 -34 -3 -41 -6z"/>
<path d="M2794 1875 c-4 -8 -12 -15 -20 -15 -27 0 -33 -32 -11 -62 20 -27 47
-38 47 -18 0 6 6 10 14 10 22 0 41 29 28 42 -7 7 -12 20 -12 29 0 9 -7 20 -16
23 -22 8 -24 8 -30 -9z"/>
<path d="M1867 1839 c7 -7 15 -10 18 -7 3 3 -2 9 -12 12 -14 6 -15 5 -6 -5z"/>
<path d="M1996 1831 c-4 -5 -2 -12 3 -15 5 -4 12 -2 15 3 4 5 2 12 -3 15 -5 4
-12 2 -15 -3z"/>
<path d="M3116 1818 c-23 -32 -20 -47 10 -54 42 -11 59 29 25 60 -18 16 -20
16 -35 -6z"/>
<path d="M3417 1833 c-6 -10 19 -34 26 -26 8 7 -3 33 -13 33 -5 0 -11 -3 -13
-7z"/>
<path d="M3366 1791 c-4 -5 -2 -12 3 -15 5 -4 12 -2 15 3 4 5 2 12 -3 15 -5 4
-12 2 -15 -3z"/>
<path d="M2450 1769 c0 -5 -4 -8 -9 -4 -5 3 -12 1 -16 -5 -3 -5 -1 -10 5 -10
6 0 8 -6 4 -12 -5 -10 -4 -10 6 -1 11 10 16 9 26 -5 15 -21 38 -4 32 23 -3 19
-48 32 -48 14z"/>
<path d="M3290 1751 c0 -12 3 -21 8 -22 4 0 15 -2 25 -4 9 -2 15 1 11 6 -3 5
-10 7 -15 3 -6 -3 -9 2 -7 11 2 10 -3 20 -9 22 -8 3 -13 -4 -13 -16z"/>
<path d="M5245 1760 c-3 -5 3 -10 14 -10 12 0 21 5 21 10 0 6 -6 10 -14 10 -8
0 -18 -4 -21 -10z"/>
<path d="M5333 1754 c-3 -8 -1 -20 6 -27 14 -14 47 15 37 32 -10 16 -36 13
-43 -5z"/>
<path d="M5235 1731 c-3 -5 0 -13 6 -17 7 -4 9 -3 5 4 -3 5 0 13 6 15 9 4 10
6 1 6 -6 1 -14 -3 -18 -8z"/>
<path d="M5260 1711 c0 -6 5 -13 10 -16 6 -3 10 1 10 9 0 9 -4 16 -10 16 -5 0
-10 -4 -10 -9z"/>
<path d="M7013 1689 c4 -15 2 -18 -7 -10 -28 23 -47 -30 -26 -70 13 -23 55
-25 64 -4 7 19 -3 47 -15 39 -5 -3 -9 -1 -9 5 0 5 4 11 9 13 4 2 12 13 15 26
6 18 4 22 -14 22 -18 0 -21 -4 -17 -21z"/>
<path d="M7085 1700 c4 -6 -4 -14 -16 -18 -16 -6 -19 -11 -10 -17 8 -4 17 -2
21 5 4 7 13 9 19 6 6 -4 11 -1 11 7 0 8 -7 18 -16 21 -8 3 -12 2 -9 -4z"/>
<path d="M2410 1680 c0 -5 5 -10 11 -10 5 0 7 5 4 10 -3 6 -8 10 -11 10 -2 0
-4 -4 -4 -10z"/>
<path d="M5240 1685 c0 -3 10 -16 22 -30 16 -19 25 -22 35 -14 16 14 7 30 -12
22 -8 -3 -15 -1 -15 5 0 5 -7 12 -15 16 -8 3 -15 3 -15 1z"/>
<path d="M2971 1657 c-14 -14 -14 -37 0 -37 5 0 7 -5 3 -12 -4 -7 -3 -8 5 -4
6 4 9 11 6 16 -3 4 2 10 10 14 8 3 15 10 15 15 0 15 -27 20 -39 8z"/>
<path d="M3186 1661 c-3 -5 1 -11 9 -15 8 -3 15 -1 15 4 0 13 -18 22 -24 11z"/>
<path d="M2606 1645 c-7 -20 21 -32 37 -16 9 9 8 14 -3 21 -21 13 -27 12 -34
-5z"/>
<path d="M6348 1643 c-26 -31 -30 -43 -18 -58 6 -8 19 -11 28 -8 15 4 15 3 2
-6 -8 -6 -11 -11 -6 -11 4 0 -2 -8 -14 -18 -21 -17 -21 -17 -2 -40 23 -26 35
-28 53 -6 11 14 13 14 21 0 10 -18 38 -22 38 -6 0 6 6 9 12 8 7 -2 14 7 16 20
2 12 -1 22 -7 22 -5 0 -9 8 -8 19 1 12 7 17 18 14 23 -6 29 25 11 55 -16 25
-52 30 -52 6 0 -8 -4 -12 -10 -9 -5 3 -10 0 -11 -7 -1 -7 -4 -2 -8 12 -8 31
-41 37 -63 13z"/>
<path d="M7143 1642 c0 -12 5 -22 9 -22 11 0 10 12 -2 30 -7 12 -9 10 -7 -8z"/>
<path d="M2430 1640 c0 -5 5 -10 11 -10 5 0 7 5 4 10 -3 6 -8 10 -11 10 -2 0
-4 -4 -4 -10z"/>
<path d="M2505 1641 c-3 -5 -1 -12 5 -16 5 -3 10 1 10 9 0 18 -6 21 -15 7z"/>
<path d="M3090 1634 c0 -9 5 -14 12 -12 18 6 21 28 4 28 -9 0 -16 -7 -16 -16z"/>
<path d="M7100 1640 c0 -5 5 -10 10 -10 6 0 10 5 10 10 0 6 -4 10 -10 10 -5 0
-10 -4 -10 -10z"/>
<path d="M3186 1613 c-6 -14 -5 -15 5 -6 7 7 10 15 7 18 -3 3 -9 -2 -12 -12z"/>
<path d="M3155 1610 c3 -5 8 -10 11 -10 2 0 4 5 4 10 0 6 -5 10 -11 10 -5 0
-7 -4 -4 -10z"/>
<path d="M2750 1603 c0 -5 9 -17 21 -26 20 -18 20 -17 17 5 -3 21 -38 40 -38
21z"/>
<path d="M3001 1594 c0 -11 3 -14 6 -6 3 7 2 16 -1 19 -3 4 -6 -2 -5 -13z"/>
<path d="M5377 1590 c-7 -27 26 -46 43 -25 7 8 10 22 6 30 -8 22 -43 18 -49
-5z"/>
<path d="M2551 1574 c0 -11 3 -14 6 -6 3 7 2 16 -1 19 -3 4 -6 -2 -5 -13z"/>
<path d="M3075 1580 c-3 -5 -1 -10 4 -10 6 0 11 5 11 10 0 6 -2 10 -4 10 -3 0
-8 -4 -11 -10z"/>
<path d="M7120 1580 c0 -5 5 -10 10 -10 6 0 10 5 10 10 0 6 -4 10 -10 10 -5 0
-10 -4 -10 -10z"/>
<path d="M2685 1560 c-3 -5 -1 -10 4 -10 6 0 11 5 11 10 0 6 -2 10 -4 10 -3 0
-8 -4 -11 -10z"/>
<path d="M2620 1539 c0 -5 5 -7 10 -4 6 3 10 8 10 11 0 2 -4 4 -10 4 -5 0 -10
-5 -10 -11z"/>
<path d="M5279 1548 c-9 -30 -6 -36 12 -25 23 14 25 27 4 27 -8 0 -15 -1 -16
-2z"/>
<path d="M7165 1540 c-3 -5 -1 -10 4 -10 6 0 11 5 11 10 0 6 -2 10 -4 10 -3 0
-8 -4 -11 -10z"/>
<path d="M6125 1520 c3 -5 11 -10 16 -10 6 0 7 5 4 10 -3 6 -11 10 -16 10 -6
0 -7 -4 -4 -10z"/>
<path d="M7100 1495 c0 -8 5 -15 10 -15 6 0 10 7 10 15 0 8 -4 15 -10 15 -5 0
-10 -7 -10 -15z"/>
<path d="M5330 1490 c0 -5 5 -10 10 -10 6 0 10 5 10 10 0 6 -4 10 -10 10 -5 0
-10 -4 -10 -10z"/>
<path d="M5548 1453 c-21 -5 -22 -16 -8 -44 19 -34 70 -13 62 26 -4 25 -15 28
-54 18z"/>
<path d="M5390 1441 c0 -5 -10 -12 -22 -16 -20 -6 -21 -8 -5 -12 10 -3 25 -2
33 1 16 6 19 36 4 36 -5 0 -10 -4 -10 -9z"/>
<path d="M7006 1405 c-3 -9 1 -18 10 -22 19 -7 39 11 30 26 -10 16 -33 13 -40
-4z"/>
<path d="M5870 1395 c0 -9 -6 -18 -14 -21 -17 -7 -17 -44 0 -44 7 0 14 -7 18
-15 3 -8 12 -15 21 -15 9 0 18 7 21 15 4 8 13 15 20 15 26 0 27 29 3 55 -27
28 -69 34 -69 10z"/>
<path d="M6787 1370 c-21 -25 -21 -25 4 -49 18 -16 25 -18 40 -8 20 12 26 47
9 47 -5 0 -9 5 -7 12 4 21 -27 19 -46 -2z"/>
<path d="M5455 1309 c-4 -6 -4 -13 -1 -16 3 -4 6 -1 6 5 0 6 7 9 17 5 11 -4
14 -3 9 5 -9 15 -23 15 -31 1z"/>
<path d="M7040 1310 c0 -5 5 -10 11 -10 5 0 7 5 4 10 -3 6 -8 10 -11 10 -2 0
-4 -4 -4 -10z"/>
<path d="M6970 1274 c0 -8 5 -12 10 -9 6 3 10 10 10 16 0 5 -4 9 -10 9 -5 0
-10 -7 -10 -16z"/>
<path d="M5540 1264 c0 -9 5 -14 12 -12 18 6 21 28 4 28 -9 0 -16 -7 -16 -16z"/>
<path d="M5653 1225 c1 -41 9 -44 26 -11 14 26 8 46 -14 46 -8 0 -13 -12 -12
-35z"/>
<path d="M5590 1210 c0 -5 5 -10 10 -10 6 0 10 5 10 10 0 6 -4 10 -10 10 -5 0
-10 -4 -10 -10z"/>
<path d="M6559 1211 c-3 -20 -4 -26 -12 -38 -4 -6 -2 -15 4 -19 7 -4 10 -3 7
2 -8 13 13 29 37 29 31 0 24 30 -7 33 -16 2 -29 -1 -29 -7z"/>
<path d="M6163 1194 c-7 -19 14 -44 25 -28 10 15 41 14 35 -2 -2 -6 0 -15 6
-18 14 -9 9 36 -5 52 -17 17 -53 15 -61 -4z"/>
<path d="M6840 1180 c0 -7 6 -10 14 -7 8 3 17 2 20 -4 2 -5 3 -4 2 3 -3 17
-36 23 -36 8z"/>
<path d="M6730 1165 c0 -8 7 -15 15 -15 8 0 15 7 15 15 0 8 -7 15 -15 15 -8 0
-15 -7 -15 -15z"/>
<path d="M6003 1143 c-14 -5 -18 -43 -5 -43 13 0 28 15 27 27 0 16 -8 21 -22
16z"/>
<path d="M5834 1126 c-3 -8 -1 -23 5 -33 10 -17 10 -16 11 4 0 16 4 21 15 17
9 -4 15 0 15 10 0 20 -39 22 -46 2z"/>
<path d="M6650 1120 c0 -5 5 -10 10 -10 6 0 10 5 10 10 0 6 -4 10 -10 10 -5 0
-10 -4 -10 -10z"/>
<path d="M6170 1100 c0 -5 5 -10 10 -10 6 0 10 5 10 10 0 6 -4 10 -10 10 -5 0
-10 -4 -10 -10z"/>
<path d="M6106 1091 c-4 -5 -2 -12 3 -15 5 -4 12 -2 15 3 4 5 2 12 -3 15 -5 4
-12 2 -15 -3z"/>
<path d="M6705 1090 c3 -5 8 -10 11 -10 2 0 4 5 4 10 0 6 -5 10 -11 10 -5 0
-7 -4 -4 -10z"/>
<path d="M5916 1071 c-4 -5 -2 -12 3 -15 5 -4 12 -2 15 3 4 5 2 12 -3 15 -5 4
-12 2 -15 -3z"/>
<path d="M5970 1040 c0 -5 5 -10 11 -10 5 0 7 5 4 10 -3 6 -8 10 -11 10 -2 0
-4 -4 -4 -10z"/>
<path d="M6050 1041 c0 -6 4 -12 8 -15 5 -3 9 1 9 9 0 8 -4 15 -9 15 -4 0 -8
-4 -8 -9z"/>
<path d="M5926 1018 c3 -5 10 -6 15 -3 13 9 11 12 -6 12 -8 0 -12 -4 -9 -9z"/>
</g>
</svg>
